<svg xmlns="http://www.w3.org/2000/svg" xmlns:xlink="http://www.w3.org/1999/xlink" version="1.1" width="158.43945621746033" height="177.42999576824158" viewBox="-0.1491419042013582 0.6929999624826018 158.43945621746033 177.42999576824158">
  <!-- Exported by Scratch - http://scratch.mit.edu/ -->
  <path id="ID0.8914963030256331" fill="#FAA51D" stroke="#000000" stroke-width="1.2" d="M 89.318 125.279 C 89.146 125.279 88.974 125.272 88.801 125.258 L 75.38 124.19 C 71.801 123.905 69.131 120.773 69.416 117.195 C 69.699 113.617 72.815 110.948 76.411 111.231 L 86.142 112.005 L 98.966 93.85 C 101.037 90.918 105.092 90.219 108.026 92.29 C 110.958 94.361 111.656 98.417 109.586 101.35 L 94.628 122.53 C 93.403 124.262 91.418 125.279 89.318 125.279 L 89.318 125.279 Z "/>
  <path id="ID0.7002262021414936" fill="#FAA51D" stroke="#000000" stroke-width="1.2" d="M 84.003 173.446 C 82.922 173.446 81.824 173.211 80.783 172.716 L 72.199 168.628 C 72.058 168.561 71.92 168.489 71.783 168.414 L 66.27 165.353 C 64.173 164.188 62.759 162.091 62.466 159.71 C 62.174 157.33 63.037 154.953 64.789 153.315 L 71.194 147.33 L 62.683 144.847 C 58.706 143.687 56.423 139.523 57.583 135.546 C 58.743 131.569 62.907 129.288 66.884 130.446 L 88.036 136.618 C 90.624 137.373 92.607 139.459 93.231 142.081 C 93.855 144.702 93.025 147.458 91.056 149.298 L 82.765 157.046 L 87.23 159.172 C 90.97 160.953 92.558 165.429 90.777 169.168 C 89.494 171.868 86.805 173.446 84.003 173.446 L 84.003 173.446 Z "/>
  <path id="ID0.7152078151702881_1_" fill="#FAA51D" stroke="#000000" d="M 30.001 125.404 C 26.444 122.614 22.463 118.76 20.351 113.111 C 15.629 100.476 19.665 85.797 11.607 85.924 C 3.543 86.054 -7.447 107.445 8.92 124.324 C 14.56 130.145 20.776 133.397 25.894 135.888 C 27.239 136.534 39.035 141.377 45.791 137.807 C 52.55 134.235 50.595 131.45 49.677 129.993 C 48.757 128.536 35.03 129.344 30.001 125.404 L 30.001 125.404 Z " stroke-width="1"/>
  <path id="ID0.4691764716990292_1_" fill="#FFFFFF" d="M 12.307 86.82 C 8.541 86.131 3.045 92.358 1.713 98.892 C 0.377 105.432 1.741 109.322 2.577 112.609 C 4.187 115.601 3.444 108.082 8.324 106.997 C 13.189 105.917 18.449 110.379 18.449 110.379 C 18.449 110.379 17.094 101.405 16.43 96.064 C 15.831 90.962 16.197 87.806 12.307 86.82 L 12.307 86.82 Z " stroke-width="1"/>
  <path id="ID0.26425604708492756_1_" fill="#FAA51D" stroke="#231F20" stroke-width="1.2" d="M 75.284 143.906 C 77.469 142.228 79.692 139.488 82.551 135.238 C 84.934 131.695 87.516 124.981 87.516 124.981 C 89.124 120.345 91.073 112.888 84.018 111.564 C 81.163 111.029 76.517 111.384 69.914 110.137 C 63.307 108.884 57.413 105.499 52.413 114.243 C 47.415 122.991 34.777 129.452 50.471 144.701 L 75.284 143.906 Z "/>
  <path id="ID0.441501600202173" fill="#FAA51D" stroke="#000000" stroke-width="1.2" d="M 50.395 177.523 C 48.532 177.523 46.666 176.834 45.213 175.444 L 34.754 165.444 C 33.074 163.839 32.234 161.546 32.478 159.235 C 32.722 156.924 34.024 154.858 36.001 153.639 L 49.01 145.618 L 46.765 142.467 C 44.362 139.094 45.148 134.41 48.522 132.007 C 51.897 129.602 56.58 130.39 58.982 133.764 L 65.878 143.445 C 67.082 145.135 67.532 147.25 67.12 149.284 C 66.709 151.319 65.473 153.092 63.705 154.18 L 52.138 161.313 L 55.578 164.603 C 58.572 167.465 58.679 172.213 55.816 175.207 C 54.344 176.747 52.371 177.523 50.395 177.523 L 50.395 177.523 Z "/>
  <path id="ID0.203311821911484_1_" fill="#FFFFFF" d="M 83.559 131.81 C 83.559 131.81 88.101 126.918 79.019 122.032 C 69.937 117.146 65.754 122.001 62.949 124.829 C 58.087 129.712 68.28 140.987 68.28 140.987 L 75.121 142.879 C 75.121 142.879 78.316 139.851 79.717 137.401 C 81.322 135.168 83.559 131.81 83.559 131.81 " stroke-width="1"/>
  <path id="ID0.699479915201664" fill="#FAA51D" d="M 60.84 143.699 C 57.533 147.058 51.722 146.7 47.861 142.899 C 43.999 139.099 43.549 133.293 46.857 129.934 C 50.164 126.574 55.976 124.931 59.837 128.732 C 66.409 135.2 66.771 137.671 60.84 143.699 Z " stroke-width="1"/>
  <path id="ID0.4675603983923793_1_" fill="#FAA51D" stroke="#231F20" stroke-width="1.2" d="M 90.069 20.785 C 87.298 20.144 81.491 19.037 78.249 18.755 C 69.577 17.998 60.964 19.99 60.964 19.99 L 39.34 1.293 L 38.743 36.298 C 40.114 35.031 16.347 57.023 26.421 79.581 C 36.502 102.151 62.858 115.172 97.953 113.014 C 133.052 110.851 143.872 92.271 143.018 81.551 C 142.165 70.831 129.785 65.238 129.785 65.238 C 129.785 65.238 130.728 57.052 126.182 46.249 C 123.48 39.818 112.955 29.534 112.955 29.534 L 110.598 7.777 L 95.241 19.065 L 90.069 20.785 L 90.069 20.785 Z "/>
  <path id="ID0.876089540310204_1_" fill="#FFFFFF" d="M 128.113 64.745 L 124.099 60.371 L 106.832 62.969 C 106.832 62.969 105.987 69.2 97.796 69.848 C 89.598 70.503 77.929 62.931 77.929 62.931 L 62.898 67.236 C 62.898 67.236 47.294 66.841 45.472 76.158 C 41.416 96.863 65.845 109.034 75.473 110.903 C 80.726 111.925 90.563 112.32 98.127 111.855 C 131.274 110.346 142.657 92.061 141.809 81.337 C 140.956 70.618 129.047 66.254 129.047 66.254 L 128.113 64.745 L 128.113 64.745 Z " stroke-width="1"/>
  <path id="ID0.44282719027251005_1_" fill="none" stroke="#231F20" stroke-width="1.2000000036551157" d="M 14.7115 46.1095 C 14.7115 46.1095 18.5761 52.6359 20.7421 55.3052 C 22.9088 57.9724 27.5288 62.8621 27.5288 62.8621 "/>
  <path id="ID0.893105489667505_1_" fill="none" stroke="#231F20" stroke-width="1.2000000171616747" d="M 136.6557 76.3561 C 136.6557 76.3561 145.0329 75.0644 149.2943 73.6197 C 154.3014 71.9335 157.6903 69.0155 157.6903 69.0155 "/>
  <path id="ID0.6674723788164556_1_" fill="none" stroke="#231F20" stroke-width="1.1999999969532649" d="M 137.3139 87.1747 C 137.3139 87.1747 142.4902 88.7455 147.6771 88.7968 C 152.7966 88.845 156.2042 88.23 156.2042 88.23 "/>
  <path id="ID0.12165586883202195_1_" fill="none" stroke="#000000" stroke-linecap="round" d="M 89.401 20.799 C 94.403 22.776 96.121 24.436 96.121 24.436 " stroke-width="1"/>
  <path id="ID0.178104005753994_1_" fill="none" stroke="#000000" d="M 55.906 15.279 L 65.87 24.717 " stroke-width="1"/>
  <path id="ID0.7735752793960273_1_" fill="#FFFFFF" stroke="#231F20" d="M 122.163 45.938 C 126.385 54.822 125.321 64.166 119.785 66.799 C 114.244 69.435 106.335 64.361 102.105 55.471 C 97.867 46.583 98.94 37.248 104.48 34.61 C 110.015 31.977 117.935 37.047 122.163 45.938 L 122.163 45.938 Z " stroke-width="1"/>
  <path id="ID0.19106501014903188_1_" fill="#231F20" d="M 119.027 58.793 C 118.76 60.761 117.083 62.159 115.263 61.913 C 113.453 61.667 112.194 59.87 112.461 57.903 C 112.727 55.934 114.42 54.534 116.23 54.779 C 118.05 55.026 119.294 56.825 119.027 58.793 " stroke-width="1"/>
  <path id="ID0.06283409334719181_1_" fill="#FFFFFF" stroke="#231F20" d="M 77.674 45.945 C 81.9 54.832 80.011 64.563 73.465 67.672 C 66.915 70.791 58.181 66.106 53.957 57.219 C 49.728 48.332 51.61 38.604 58.16 35.489 C 64.712 32.375 73.444 37.055 77.674 45.945 L 77.674 45.945 Z " stroke-width="1"/>
  <path id="ID0.716460831463337_1_" fill="#231F20" d="M 73.962 59.233 C 73.694 61.203 72.015 62.601 70.196 62.355 C 68.387 62.11 67.128 60.309 67.394 58.342 C 67.66 56.375 69.354 54.977 71.162 55.221 C 72.977 55.468 74.228 57.266 73.962 59.233 " stroke-width="1"/>
  <path id="ID0.5430324394255877_1_" fill="#5E4A42" stroke="#000000" d="M 97.059 65.844 C 100.437 66.301 105.429 66.451 105.477 68.041 C 105.527 69.634 101.325 75.277 98.959 75.221 C 96.586 75.163 88.378 69.42 88.637 66.549 C 88.89 63.678 93.941 65.421 97.059 65.844 L 97.059 65.844 Z " stroke-width="1"/>
  <path id="ID0.5547774969600141_1_" fill="none" stroke="#231F20" stroke-width="1.2" d="M 71.579 75.954 C 71.579 75.954 89.68 84.075 96.523 86.566 C 103.364 89.056 115.881 92.316 115.881 92.316 C 115.881 92.316 98.79 109.011 82.416 101.965 C 66.042 94.927 67.804 84.239 71.579 75.954 L 71.579 75.954 Z "/>
  <path id="ID0.3775032921694219" fill="#FAA51D" stroke="#000000" stroke-width="1.2" d="M 57.62 121.498 C 56.186 121.498 54.744 121.026 53.541 120.056 L 42.471 111.12 C 41.289 110.167 40.479 108.829 40.181 107.34 L 36.428 88.616 C 35.722 85.096 38.004 81.671 41.524 80.966 C 45.045 80.256 48.469 82.542 49.174 86.062 L 52.465 102.481 L 61.707 109.941 C 64.5 112.196 64.936 116.288 62.682 119.082 C 61.397 120.672 59.516 121.498 57.62 121.498 L 57.62 121.498 Z "/>
  <path id="ID0.893105489667505_1_" fill="none" stroke="#231F20" stroke-width="1.200000040702521" d="M 10.2077 56.2429 C 10.2077 56.2429 15.4147 62.9311 18.7515 65.9499 C 22.6622 69.5024 26.861 71.0417 26.861 71.0417 "/>
</svg>