<svg version="1.1" xmlns="http://www.w3.org/2000/svg" xmlns:xlink="http://www.w3.org/1999/xlink" width="482" height="131.05346" viewBox="0,0,482,131.05346"><g transform="translate(-1,-68.44654)"><g data-paper-data="{&quot;isPaintingLayer&quot;:true}" fill-rule="nonzero" stroke="none" stroke-linecap="butt" stroke-linejoin="miter" stroke-miterlimit="10" stroke-dasharray="" stroke-dashoffset="0" style="mix-blend-mode: normal"><path d="M1,199.5v-29h482v29z" fill="#ff6666" stroke-width="0"/><path d="M97,105c0,2.5 -2.5,2.5 -2.5,2.5h-2c-7.00184,0 -13.874,-0.15882 -20.7938,0.99148c-9.55832,-0.0246 -19.01966,3.46117 -27.31789,7.90211c-2.89543,1.54954 -5.31939,3.87127 -8.15448,5.52861c-2.65755,1.55356 -5.77246,2.30918 -8.27205,4.1059c-1.19544,0.85929 -1.92116,2.28385 -3.14745,3.09852c-0.92634,0.6154 -2.18746,0.53782 -3.15406,1.08782c-2.94716,1.67695 -7.93613,5.15366 -10.36423,7.52459c-1.53666,1.50048 -2.51561,3.50405 -4.02827,5.02873c0,0 -1.76777,1.76777 -3.53553,0c-1.76777,-1.76777 0,-3.53553 0,-3.53553c1.50683,-1.4927 2.44964,-3.49413 3.97173,-4.97127c2.71886,-2.63858 8.34204,-6.58566 11.63577,-8.47541c0.86407,-0.49575 2.01805,-0.35812 2.84594,-0.91218c1.12716,-0.75434 1.74666,-2.11629 2.85255,-2.90148c0.47671,-0.33847 8.15528,-4.06404 8.67222,-4.36624c1.48352,-0.86724 7.04288,-4.93224 8.41562,-5.67102c8.83341,-4.754 18.99698,-8.4012 29.16773,-8.42612c7.04909,-1.17794 14.07365,-1.00852 21.2062,-1.00852h2c0,0 2.5,0 2.5,2.5z" fill="#6cff66" stroke-width="0.5"/><path d="M154.26777,131.23223c1.76777,1.76777 0,3.53553 0,3.53553l-1,1c-2.59973,2.4499 -2.24128,6.40331 -5.58812,8.43642c-0.59027,0.35857 -6.06703,0.30143 -7.17964,0.29581c-4.90795,-0.02475 -9.67334,-1.477 -13.58497,-4.56664c-3.05311,-2.41153 -4.39433,-5.39973 -8.2056,-6.56165c0,0 -2.37171,-0.79057 -1.58114,-3.16228c0.79057,-2.37171 3.16228,-1.58114 3.16228,-1.58114c1.17459,0.41503 2.45692,0.60184 3.52376,1.24508c2.42169,1.46016 4.08054,4.41211 6.27064,6.19327c2.91928,2.37418 6.73718,3.45456 10.41503,3.43336c0.99998,-0.00576 2.00188,-0.06125 3,0c0.61359,0.03765 1.28866,0.60438 1.82036,0.29581c1.58771,-0.92141 1.0931,-3.54541 2.05302,-5.11014c0.59324,-0.96702 1.57257,-1.63563 2.35886,-2.45344l1,-1c0,0 1.76777,-1.76777 3.53553,0z" fill="#6cff66" stroke-width="0.5"/><path d="M274,124c0,2.5 -2.5,2.5 -2.5,2.5l-1.20943,-0.12829c-3.98309,1.1856 -7.34153,0.96581 -11.1049,-1.24508c-1.56886,-0.92167 -1.65992,-2.62663 -3.68567,-2.62663c-2.05769,0 -3.98589,3.05379 -5.23223,4.26777c-1.25553,1.22292 -1.72199,3.05423 -2.64114,4.54656c-1.09036,1.77031 -5.01397,5.76732 -6.8123,6.8123c-5.65025,3.28328 -11.6154,0.07491 -17.1049,-1.75492c0,0 -2.37171,-0.79057 -1.58114,-3.16228c0.79057,-2.37171 3.16228,-1.58114 3.16228,-1.58114c2.7511,0.91703 5.76307,2.36885 8.60989,2.90399c3.57185,0.67144 7.78323,-2.93792 9.47292,-5.84661c0.52948,-0.91146 0.44721,-2.10249 1,-3c1.05397,-1.71122 5.05134,-5.84118 6.8123,-6.8123c3.3732,-1.86023 5.25545,-1.8021 8.62866,0c0.83158,0.44426 1.19707,1.50584 2,2c2.27195,1.39828 4.5684,1.6729 6.8951,0.75492l2.79057,-0.12829c0,0 2.5,0 2.5,2.5z" fill="#6cff66" stroke-width="0.5"/><path d="M347.26777,69.23223c1.76777,1.76777 0,3.53553 0,3.53553l-0.39606,0.0228c-1.50238,4.25194 -4.61683,7.28904 -7.43835,10.7944c-0.52273,0.64942 -1.38126,1.01244 -1.80673,1.72936c-0.53797,0.90648 -0.44722,2.10248 -1,3c-0.72697,1.18035 -3.27364,3.11618 -4.21523,4.29771c-2.06397,2.58994 -3.89101,5.36315 -5.95923,7.9497c0,0 -1.56174,1.95217 -3.51391,0.39043c-1.95217,-1.56174 -0.39043,-3.51391 -0.39043,-3.51391c2.09441,-2.61668 3.93691,-5.42873 6.03517,-8.04232c1.10685,-1.37869 2.90226,-2.1815 3.79038,-3.71027c0.52949,-0.91145 0.45379,-2.09846 1,-3c2.50254,-4.13055 7.33646,-6.82348 8.75492,-11.47624l1.60394,-1.9772c0,0 1.76777,-1.76777 3.53553,0z" fill="#6cff66" stroke-width="0.5"/></g></g></svg>