<svg xmlns="http://www.w3.org/2000/svg" xmlns:xlink="http://www.w3.org/1999/xlink" version="1.1" width="164.8580810546875" height="180.2480041503906" viewBox="-0.0990882873535156 0.7560000658035279 164.8580810546875 180.2480041503906">
  <!-- Exported by Scratch - http://scratch.mit.edu/ -->
  <g id="ID0.8786625289358199">
    <path id="ID0.07230786047875881" fill="#FAA51D" stroke="#000000" stroke-width="1.2" d="M 104.91 127.075 C 104.426 127.075 103.938 127.02 103.46 126.911 L 83.458 122.332 C 79.958 121.531 77.771 118.045 78.572 114.546 C 79.373 111.046 82.86 108.857 86.358 109.66 L 103.93 113.682 L 119.288 105.144 C 122.426 103.398 126.384 104.529 128.127 107.666 C 129.872 110.804 128.742 114.761 125.605 116.505 L 108.068 126.255 C 107.096 126.796 106.008 127.075 104.91 127.075 L 104.91 127.075 Z "/>
    <path id="ID0.4675603983923793_1_" fill="#FAA51D" stroke="#231F20" stroke-width="1.2" d="M 89.961 17.003 C 87.129 16.74 81.226 16.422 77.975 16.578 C 69.281 16.992 61.013 20.123 61.013 20.123 L 37.073 4.5 L 41.182 39.268 C 42.37 37.829 21.772 62.813 34.785 83.814 C 47.806 104.826 75.671 114.189 110.159 107.337 C 144.649 100.48 152.876 80.615 150.591 70.107 C 148.307 59.599 135.287 55.72 135.287 55.72 C 135.287 55.72 135.122 47.482 129.167 37.386 C 125.625 31.376 113.815 22.599 113.815 22.599 L 108.557 1.356 L 94.854 14.604 L 89.961 17.003 L 89.961 17.003 Z "/>
    <path id="ID0.876089540310204_1_" fill="#FFFFFF" d="M 133.563 55.455 L 128.999 51.66 L 112.237 56.553 C 112.237 56.553 112.237 62.841 104.207 64.583 C 96.171 66.333 83.591 60.396 83.591 60.396 L 69.275 66.68 C 69.275 66.68 53.759 68.385 53.205 77.862 C 51.967 98.924 77.809 107.704 87.601 108.263 C 92.944 108.571 102.745 107.641 110.178 106.164 C 142.823 100.217 151.647 80.568 149.366 70.057 C 147.082 59.549 134.694 56.825 134.694 56.825 L 133.563 55.455 L 133.563 55.455 Z " stroke-width="1"/>
    <path id="ID0.44282719027251005_1_" fill="none" stroke="#231F20" stroke-width="1.2" d="M 12.659 75.847 C 12.659 75.847 20.212 76.535 23.645 76.34 C 27.075 76.144 33.745 75.261 33.745 75.261 "/>
    <path id="ID0.893105489667505_1_" fill="none" stroke="#231F20" stroke-width="1.2" d="M 143.192 65.763 C 143.192 65.763 151.557 64.396 155.805 62.913 C 160.797 61.182 164.159 58.233 164.159 58.233 "/>
    <path id="ID0.03574043000116944_1_" fill="none" stroke="#231F20" stroke-width="1.2" d="M 34.108 68.039 C 34.108 68.039 29.724 64.77 22.86 61.731 C 15.257 58.364 11.082 57.496 11.082 57.496 "/>
    <path id="ID0.6674723788164556_1_" fill="none" stroke="#231F20" stroke-width="1.2" d="M 144.04 76.706 C 144.04 76.706 149.054 78.735 154.215 79.253 C 159.31 79.761 162.759 79.455 162.759 79.455 "/>
    <path id="ID0.12165586883202195_1_" fill="none" stroke="#000000" stroke-linecap="round" d="M 89.301 17.106 C 94.523 18.393 96.448 19.807 96.448 19.807 " stroke-width="1"/>
    <path id="ID0.178104005753994_1_" fill="none" stroke="#000000" d="M 55.368 16.135 L 66.509 24.149 " stroke-width="1"/>
    <path id="ID0.7735752793960273_1_" fill="#FFFFFF" stroke="#231F20" d="M 125.142 37.617 C 130.519 45.853 130.719 55.255 125.587 58.608 C 120.45 61.964 111.931 57.999 106.546 49.757 C 101.152 41.519 100.962 32.124 106.098 28.766 C 111.229 25.414 119.759 29.375 125.142 37.617 L 125.142 37.617 Z " stroke-width="1"/>
    <path id="ID0.19106501014903188_1_" fill="#231F20" d="M 123.761 50.778 C 123.761 52.763 122.286 54.375 120.45 54.375 C 118.624 54.375 117.135 52.763 117.135 50.778 C 117.135 48.792 118.624 47.176 120.45 47.176 C 122.286 47.176 123.761 48.791 123.761 50.778 " stroke-width="1"/>
    <path id="ID0.06283409334719181_1_" fill="#FFFFFF" stroke="#231F20" d="M 81.057 43.6 C 86.438 51.838 85.872 61.736 79.804 65.695 C 73.732 69.666 64.448 66.195 59.069 57.957 C 53.685 49.719 54.244 39.825 60.316 35.858 C 66.39 31.893 75.671 35.358 81.057 43.6 L 81.057 43.6 Z " stroke-width="1"/>
    <path id="ID0.716460831463337_1_" fill="#231F20" d="M 77.769 54.427 C 77.769 56.415 76.292 58.027 74.456 58.027 C 72.632 58.027 71.142 56.412 71.142 54.427 C 71.142 52.442 72.632 50.828 74.456 50.828 C 76.288 50.828 77.769 52.442 77.769 54.427 " stroke-width="1"/>
    <path id="ID0.5430324394255877_1_" fill="#5E4A42" stroke="#000000" d="M 102.938 60.714 C 106.347 60.714 111.314 60.193 111.575 61.761 C 111.839 63.333 108.432 69.49 106.081 69.751 C 103.722 70.013 94.817 65.424 94.688 62.544 C 94.553 59.665 99.792 60.714 102.938 60.714 L 102.938 60.714 Z " stroke-width="1"/>
    <path id="ID0.5547774969600141_1_" fill="none" stroke="#231F20" stroke-width="1.2" d="M 79.047 74.156 C 79.047 74.156 98.074 79.772 105.191 81.322 C 112.304 82.871 125.146 84.42 125.146 84.42 C 125.146 84.42 110.453 103.26 93.281 98.477 C 76.108 93.7 76.419 82.872 79.047 74.156 L 79.047 74.156 Z "/>
    <path id="ID0.7081320122815669" fill="#FAA51D" stroke="#000000" stroke-width="1.2" d="M 38.037 173.325 C 36.39 173.325 34.731 172.785 33.347 171.674 L 25.763 165.586 C 25.472 165.353 25.199 165.097 24.946 164.822 L 18.433 157.761 C 16.442 155.602 15.894 152.48 17.031 149.772 C 18.169 147.064 20.782 145.269 23.718 145.18 L 47.937 144.441 L 47.339 136.061 C 47.045 131.929 50.155 128.341 54.287 128.046 C 58.432 127.745 62.007 130.863 62.302 134.994 L 63.454 151.166 C 63.599 153.203 62.907 155.211 61.538 156.727 C 60.17 158.243 58.242 159.134 56.201 159.196 L 42.295 159.621 L 42.738 159.976 C 45.967 162.569 46.484 167.289 43.891 170.52 C 42.409 172.365 40.233 173.325 38.037 173.325 L 38.037 173.325 Z "/>
    <path id="ID0.7152078151702881_1_" fill="#FAA51D" stroke="#000000" d="M 32.103 128.857 C 28.287 126.436 23.941 122.999 21.277 117.587 C 15.32 105.484 17.874 90.476 9.869 91.406 C 1.857 92.337 -6.947 114.716 11.02 129.883 C 17.21 135.114 23.72 137.73 29.06 139.699 C 30.461 140.21 42.682 143.852 49.05 139.627 C 55.417 135.4 53.196 132.823 52.138 131.465 C 51.077 130.107 37.499 132.278 32.103 128.857 L 32.103 128.857 Z " stroke-width="1"/>
    <path id="ID0.4691764716990292_1_" fill="#FFFFFF" d="M 10.657 92.227 C 6.841 91.915 1.991 98.661 1.316 105.294 C 0.637 111.935 2.383 115.668 3.542 118.857 C 5.442 121.673 3.954 114.264 8.701 112.701 C 13.434 111.14 19.113 115.056 19.113 115.056 C 19.113 115.056 16.87 106.263 15.679 101.014 C 14.574 95.995 14.624 92.821 10.657 92.227 L 10.657 92.227 Z " stroke-width="1"/>
    <path id="ID0.26425604708492756_1_" fill="#FAA51D" stroke="#231F20" stroke-width="1.2" d="M 78.318 141.786 C 80.503 140.108 82.726 137.368 85.585 133.118 C 87.968 129.575 90.55 122.861 90.55 122.861 C 92.158 118.225 94.107 110.768 87.052 109.444 C 84.197 108.909 79.551 109.264 72.948 108.017 C 66.341 106.764 60.447 103.379 55.447 112.123 C 50.449 120.871 37.811 127.332 53.505 142.581 L 78.318 141.786 Z "/>
    <path id="ID0.284576840698719" fill="#FAA51D" stroke="#000000" stroke-width="1.2" d="M 101.431 180.404 L 76.972 180.404 C 74.592 180.404 72.354 179.275 70.94 177.36 C 69.526 175.446 69.104 172.975 69.803 170.7 L 74.819 154.384 L 58.379 145.613 C 54.725 143.664 53.342 139.121 55.292 135.466 C 57.241 131.813 61.784 130.429 65.439 132.379 L 87.335 144.06 C 90.503 145.75 92.028 149.449 90.974 152.881 L 87.124 165.404 L 101.431 165.404 C 105.574 165.404 108.931 168.761 108.931 172.904 C 108.931 177.047 105.573 180.404 101.431 180.404 L 101.431 180.404 Z "/>
    <path id="ID0.203311821911484_1_" fill="#FFFFFF" d="M 86.594 129.69 C 86.594 129.69 91.136 124.798 82.054 119.912 C 72.972 115.026 68.789 119.881 65.984 122.709 C 61.122 127.592 72.315 134.867 72.315 134.867 L 78.156 140.759 C 78.156 140.759 81.351 137.731 82.752 135.281 C 84.356 133.048 86.594 129.69 86.594 129.69 " stroke-width="1"/>
    <path id="ID0.2322548059746623" fill="#FAA51D" d="M 66.8253 130.6572 C 68.7545 132.5562 69.8322 134.9583 70.0141 137.3053 C 70.1953 139.653 69.4823 141.9441 67.8303 143.6226 C 66.1782 145.301 63.8987 146.0502 61.5484 145.9062 C 59.1988 145.7614 56.7799 144.722 54.8507 142.823 C 52.9214 140.9241 51.8438 138.5219 51.6618 136.175 C 51.4806 133.8273 52.1936 131.5361 53.8457 129.8577 C 55.4977 128.1793 57.7772 127.4301 60.1275 127.5741 C 62.4771 127.7188 64.896 128.7583 66.8253 130.6572 Z " stroke-width="1.0000217754203118"/>
    <path id="ID0.5392056042328477" fill="#FAA51D" stroke="#000000" stroke-width="1.2" d="M 24.155 136.495 C 22.792 136.495 21.418 136.068 20.245 135.183 C 17.38 133.021 16.809 128.946 18.972 126.079 L 30.387 110.949 C 31.509 109.462 33.215 108.528 35.073 108.384 L 58.158 106.593 C 61.731 106.31 64.863 108.99 65.141 112.571 C 65.418 116.15 62.743 119.277 59.163 119.554 L 38.999 121.118 L 29.349 133.909 C 28.071 135.604 26.125 136.495 24.155 136.495 L 24.155 136.495 Z "/>
  </g>
</svg>