<svg xmlns="http://www.w3.org/2000/svg" xmlns:xlink="http://www.w3.org/1999/xlink" version="1.1" width="168.16693420410155" height="172.2480041503906" viewBox="-0.09892950057983396 0.9559999942779541 168.16693420410155 172.2480041503906">
  <!-- Exported by Scratch - http://scratch.mit.edu/ -->
  <g id="ID0.898351676762104">
    <path id="ID0.18537875078618526" fill="#FAA51D" stroke="#000000" stroke-width="1.2" d="M 36.88 139.044 C 36.505 139.044 36.126 139.012 35.744 138.944 C 32.208 138.321 29.848 134.95 30.471 131.415 L 33.511 114.165 C 34.025 111.246 36.449 109.045 39.403 108.812 L 60.747 107.133 C 64.345 106.864 67.455 109.526 67.737 113.104 C 68.018 116.683 65.345 119.812 61.767 120.094 L 45.441 121.377 L 43.274 133.67 C 42.718 136.825 39.975 139.044 36.88 139.044 L 36.88 139.044 Z "/>
    <path id="ID0.4675603983923793_1_" fill="#FAA51D" stroke="#231F20" stroke-width="1.2" d="M 93.27 17.203 C 90.438 16.94 84.535 16.622 81.284 16.778 C 72.59 17.192 64.322 20.323 64.322 20.323 L 40.382 4.7 L 44.491 39.468 C 45.679 38.029 25.081 63.013 38.094 84.014 C 51.115 105.026 78.98 114.389 113.468 107.537 C 147.958 100.68 156.185 80.815 153.9 70.307 C 151.616 59.799 138.596 55.92 138.596 55.92 C 138.596 55.92 138.431 47.682 132.476 37.586 C 128.934 31.576 117.124 22.799 117.124 22.799 L 111.866 1.556 L 98.164 14.804 L 93.27 17.203 L 93.27 17.203 Z "/>
    <path id="ID0.876089540310204_1_" fill="#FFFFFF" d="M 136.873 55.655 L 132.309 51.86 L 115.547 56.753 C 115.547 56.753 115.547 63.041 107.517 64.783 C 99.48 66.533 86.9 60.597 86.9 60.597 L 72.584 66.881 C 72.584 66.881 57.068 68.586 56.514 78.063 C 55.276 99.125 81.118 107.905 90.91 108.464 C 96.253 108.772 106.054 107.842 113.487 106.365 C 146.132 100.418 154.956 80.769 152.675 70.258 C 150.391 59.75 138.003 57.026 138.003 57.026 L 136.873 55.655 L 136.873 55.655 Z " stroke-width="1"/>
    <path id="ID0.44282719027251005_1_" fill="none" stroke="#231F20" stroke-width="1.2" d="M 15.968 76.047 C 15.968 76.047 23.521 76.735 26.954 76.54 C 30.384 76.344 37.054 75.461 37.054 75.461 "/>
    <path id="ID0.893105489667505_1_" fill="none" stroke="#231F20" stroke-width="1.2" d="M 146.501 65.963 C 146.501 65.963 154.866 64.596 159.114 63.113 C 164.106 61.382 167.468 58.433 167.468 58.433 "/>
    <path id="ID0.03574043000116944_1_" fill="none" stroke="#231F20" stroke-width="1.2" d="M 37.417 68.239 C 37.417 68.239 33.033 64.97 26.169 61.931 C 18.566 58.564 14.391 57.696 14.391 57.696 "/>
    <path id="ID0.6674723788164556_1_" fill="none" stroke="#231F20" stroke-width="1.2" d="M 147.349 76.906 C 147.349 76.906 152.363 78.935 157.524 79.453 C 162.619 79.961 166.068 79.655 166.068 79.655 "/>
    <path id="ID0.12165586883202195_1_" fill="none" stroke="#000000" stroke-linecap="round" d="M 92.61 17.306 C 97.832 18.593 99.757 20.007 99.757 20.007 " stroke-width="1"/>
    <path id="ID0.178104005753994_1_" fill="none" stroke="#000000" d="M 58.677 16.335 L 69.818 24.349 " stroke-width="1"/>
    <path id="ID0.7735752793960273_1_" fill="#FFFFFF" stroke="#231F20" d="M 128.451 37.817 C 133.828 46.053 134.028 55.455 128.896 58.808 C 123.759 62.164 115.24 58.199 109.855 49.957 C 104.461 41.719 104.271 32.324 109.407 28.966 C 114.539 25.614 123.068 29.575 128.451 37.817 L 128.451 37.817 Z " stroke-width="1"/>
    <path id="ID0.19106501014903188_1_" fill="#231F20" d="M 127.07 50.978 C 127.07 52.963 125.595 54.575 123.759 54.575 C 121.933 54.575 120.444 52.963 120.444 50.978 C 120.444 48.992 121.933 47.376 123.759 47.376 C 125.595 47.376 127.07 48.991 127.07 50.978 " stroke-width="1"/>
    <path id="ID0.06283409334719181_1_" fill="#FFFFFF" stroke="#231F20" d="M 84.366 43.8 C 89.747 52.038 89.181 61.936 83.113 65.895 C 77.041 69.866 67.757 66.395 62.378 58.157 C 56.994 49.919 57.553 40.025 63.625 36.058 C 69.699 32.093 78.98 35.558 84.366 43.8 L 84.366 43.8 Z " stroke-width="1"/>
    <path id="ID0.716460831463337_1_" fill="#231F20" d="M 81.078 54.627 C 81.078 56.615 79.601 58.227 77.765 58.227 C 75.941 58.227 74.451 56.612 74.451 54.627 C 74.451 52.642 75.941 51.028 77.765 51.028 C 79.597 51.028 81.078 52.642 81.078 54.627 " stroke-width="1"/>
    <path id="ID0.5430324394255877_1_" fill="#5E4A42" stroke="#000000" d="M 106.248 60.914 C 109.657 60.914 114.624 60.393 114.885 61.961 C 115.149 63.533 111.742 69.69 109.391 69.951 C 107.032 70.213 98.127 65.624 97.998 62.744 C 97.862 59.865 103.101 60.914 106.248 60.914 L 106.248 60.914 Z " stroke-width="1"/>
    <path id="ID0.5547774969600141_1_" fill="none" stroke="#231F20" stroke-width="1.2" d="M 82.356 74.356 C 82.356 74.356 101.383 79.972 108.5 81.522 C 115.613 83.071 128.455 84.62 128.455 84.62 C 128.455 84.62 113.762 103.46 96.59 98.677 C 79.417 93.9 79.728 83.072 82.356 74.356 L 82.356 74.356 Z "/>
    <path id="ID0.37201326340436935" fill="#FAA51D" stroke="#000000" stroke-width="1.2" d="M 107.011 171.104 C 107.011 171.104 107.01 171.104 107.009 171.104 L 85.954 171.099 C 83.355 171.098 80.942 169.752 79.576 167.541 C 78.21 165.33 78.086 162.569 79.248 160.245 L 84.253 150.234 L 74.782 143.88 C 71.342 141.572 70.424 136.913 72.732 133.473 C 75.04 130.035 79.699 129.117 83.138 131.423 L 98.091 141.454 C 101.226 143.557 102.31 147.661 100.622 151.036 L 98.089 156.1 L 107.013 156.102 C 111.156 156.103 114.512 159.461 114.511 163.604 C 114.51 167.747 111.152 171.104 107.011 171.104 L 107.011 171.104 Z "/>
    <path id="ID0.7152078151702881_1_" fill="#FAA51D" stroke="#000000" d="M 34.77 130.318 C 30.665 128.43 25.898 125.604 22.534 120.598 C 15.012 109.401 15.534 94.185 7.726 96.179 C -0.088 98.173 -5.82 121.529 14.015 134.155 C 20.849 138.512 27.652 140.233 33.206 141.47 C 34.664 141.788 47.262 143.764 53.008 138.724 C 58.753 133.684 56.206 131.428 54.976 130.223 C 53.741 129.02 40.575 132.987 34.77 130.318 L 34.77 130.318 Z " stroke-width="1"/>
    <path id="ID0.4691764716990292_1_" fill="#FFFFFF" d="M 8.617 96.887 C 4.794 97.089 0.89 104.422 1.109 111.086 C 1.324 117.758 3.554 121.225 5.129 124.23 C 7.389 126.766 4.922 119.624 9.419 117.439 C 13.901 115.259 20.052 118.379 20.052 118.379 C 20.052 118.379 16.653 109.965 14.771 104.924 C 13.003 100.098 12.628 96.944 8.617 96.887 L 8.617 96.887 Z " stroke-width="1"/>
    <path id="ID0.26425604708492756_1_" fill="#FAA51D" stroke="#231F20" stroke-width="1.2" d="M 81.627 141.986 C 83.812 140.308 86.035 137.568 88.894 133.318 C 91.277 129.775 93.859 123.061 93.859 123.061 C 95.467 118.425 97.416 110.968 90.361 109.644 C 87.506 109.109 82.86 109.464 76.257 108.217 C 69.65 106.964 63.756 103.579 58.756 112.323 C 53.758 121.071 41.12 127.532 56.814 142.781 L 81.627 141.986 Z "/>
    <path id="ID0.7460215310566127" fill="#FAA51D" stroke="#000000" stroke-width="1.2" d="M 41.737 172.604 C 39.981 172.604 38.218 171.992 36.795 170.743 L 27.673 162.743 C 27.44 162.539 27.22 162.32 27.014 162.089 L 21.677 156.089 C 19.663 153.825 19.21 150.572 20.527 147.844 C 21.844 145.116 24.674 143.44 27.698 143.616 L 51.176 144.923 L 50.729 136.599 C 50.507 132.463 53.68 128.93 57.816 128.707 C 61.957 128.503 65.485 131.658 65.708 135.794 L 66.604 152.475 C 66.718 154.603 65.922 156.68 64.413 158.186 C 62.904 159.692 60.834 160.488 58.698 160.366 L 46.953 159.712 C 49.816 162.475 50.03 167.028 47.379 170.051 C 45.896 171.739 43.821 172.604 41.737 172.604 L 41.737 172.604 Z "/>
    <path id="ID0.203311821911484_1_" fill="#FFFFFF" d="M 89.903 129.89 C 89.903 129.89 94.445 124.998 85.363 120.112 C 76.281 115.226 72.098 120.081 69.293 122.909 C 64.431 127.792 75.624 135.067 75.624 135.067 L 81.465 140.959 C 81.465 140.959 84.66 137.931 86.061 135.481 C 87.666 133.248 89.903 129.89 89.903 129.89 " stroke-width="1"/>
    <path id="ID0.2278252779506147" fill="#FAA51D" d="M 65.1731 128.8456 C 67.1024 130.7446 68.18 133.1467 68.3619 135.4937 C 68.5432 137.8414 67.8301 140.1325 66.1781 141.8109 C 64.526 143.4893 62.2465 144.2386 59.8962 144.0945 C 57.5466 143.9498 55.1278 142.9104 53.1985 141.0114 C 51.2692 139.1124 50.1916 136.7103 50.0096 134.3633 C 49.8284 132.0156 50.5414 129.7245 52.1935 128.0461 C 53.8455 126.3677 56.1251 125.6184 58.4753 125.7625 C 60.8249 125.9072 63.2438 126.9466 65.1731 128.8456 Z " stroke-width="1.0000217754203118"/>
    <path id="ID0.24610224179923534" fill="#FAA51D" stroke="#000000" stroke-width="1.2" d="M 100.093 134.416 C 98.837 134.416 97.59 134.053 96.511 133.341 L 79.816 122.319 C 76.82 120.34 75.995 116.309 77.973 113.313 C 79.951 110.317 83.984 109.493 86.978 111.469 L 100.716 120.539 L 116.421 113.626 C 119.707 112.181 123.544 113.671 124.989 116.956 C 126.435 120.242 124.944 124.078 121.659 125.524 L 102.71 133.865 C 101.873 134.234 100.981 134.416 100.093 134.416 L 100.093 134.416 Z "/>
  </g>
</svg>