<svg version="1.1" xmlns="http://www.w3.org/2000/svg" xmlns:xlink="http://www.w3.org/1999/xlink" width="483.3241" height="354.5" viewBox="0,0,483.3241,354.5"><g transform="translate(0.3241,155)"><g data-paper-data="{&quot;isPaintingLayer&quot;:true}" fill-rule="nonzero" stroke="none" stroke-linecap="butt" stroke-linejoin="miter" stroke-miterlimit="10" stroke-dasharray="" stroke-dashoffset="0" style="mix-blend-mode: normal"><path d="M1,199.5v-29h482v29z" fill="#6cff66" stroke-width="0"/><path d="M126.5,180v-103h24v103z" fill="#6cff66" stroke-width="0"/><path d="M250.5,74v-103h24v103z" fill="#6cff66" stroke-width="0"/><path d="M126.5,-52v-103h24v103z" fill="#6cff66" stroke-width="0"/><path d="M4.61804,101.23607c-2.23607,1.11804 -3.3541,-1.11803 -3.3541,-1.11803l-1.26393,-3.11804c0,-4.92133 -0.75029,-10.54825 0.03228,-15.40045c0.72201,-4.47664 1.8073,-9.52778 1,-14.19909c-0.36802,-2.12949 -1.01176,-4.23949 -1.03228,-6.40045c0,0 0,-2.5 2.5,-2.5c2.5,0 2.5,2.5 2.5,2.5c-0.02352,1.89404 0.66612,3.72953 0.96772,5.59955c0.04178,0.25901 0.03228,5.92044 0.03228,6.40045c0,3.47029 -0.45756,6.07491 -1.03228,9.40045c-0.78321,4.53191 0.03228,9.98625 0.03228,14.59955l0.73607,0.88196c0,0 1.11803,2.23607 -1.11803,3.35411z" fill="#6cff66" stroke-width="0.5"/><path d="M396,136c0,1.51757 -0.92121,2.11393 -1.64522,2.34829c-1.43853,4.33063 -2.94957,8.64868 -5.92142,12.23669c-4.39538,5.30668 -10.15374,9.23062 -14,15c-4.46152,4.46152 -10.97888,7.64993 -17.53256,5.83269c-1.72381,-0.47799 -3.19923,-1.61375 -4.86617,-2.26284c-7.48396,-2.91419 -17.09181,-5.91089 -23.25984,-11.3455c-0.97739,-0.86118 -1.37343,-2.22426 -2.20814,-3.22435c-1.49557,-1.79186 -3.46422,-3.15135 -4.95528,-4.94697c-3.61673,-4.35546 -6.05014,-9.53922 -9.19149,-14.25125c0,0 -1.38675,-2.08013 0.69338,-3.46688c2.08013,-1.38675 3.46688,0.69338 3.46688,0.69338c2.2,3.29999 3.97247,6.72999 6.0465,10.07242c2.20983,3.56127 5.17911,5.57118 7.80673,8.72936c0.70435,0.84657 0.97037,2.04222 1.79186,2.77565c0.90337,0.80654 7.29489,4.01385 8.13921,4.44246c2.90794,1.47618 5.71992,3.1686 8.74553,4.38552c2.96337,1.19189 5.85133,2.60566 8.91,3.52586c4.58465,1.37929 9.44155,-1.02435 12.54669,-4.12949c3.85059,-5.77588 9.56921,-9.72109 14,-15c2.93667,-3.49879 4.15164,-7.97558 5.56165,-12.2056l3.37171,-1.70943c0,0 2.5,0 2.5,2.5z" fill="#6cff66" stroke-width="0.5"/><path d="M341.03654,143.50101c0.3083,-2.00101 2.46346,-2.00101 2.46346,-2.00101h3c9.37052,0 22.72106,0.92499 26.39273,11.77554c1.12444,3.32294 -0.40089,6.9802 -0.92501,10.12492c-0.38594,2.31564 -0.58012,4.69305 -1.34109,6.91387c-2.48304,2.58259 -4.70248,4.47156 -7.54165,6.61903c-1.01731,0.76946 -1.66591,2.23067 -2.91764,2.47593c-1.65668,0.32461 -3.29961,-0.75343 -4.97867,-0.92875c-4.30823,-0.44984 -10.27862,0.09373 -14.12878,-2.437c-1.1876,-0.78062 -1.5934,-2.35853 -2.49323,-3.45857c-2.26707,-2.77147 -3.97958,-5.44374 -4.53436,-9.18452c-0.1956,-1.31891 0.18856,-2.68007 0,-4c-0.57772,-4.04407 -2.03261,-6.62984 0.34109,-10.71478c0.16753,-0.28831 3.92078,-4.01535 4.35886,-4.45344c0,0 1.03028,-1.03028 2.30431,-0.73122z" fill="#ff6666" stroke-width="0.5"/><path d="M252.5,194v-53h25v53z" fill="#ff6666" stroke-width="0"/></g></g></svg>