<svg version="1.1" xmlns="http://www.w3.org/2000/svg" xmlns:xlink="http://www.w3.org/1999/xlink" width="717" height="292.5" viewBox="0,0,717,292.5"><g transform="translate(234,93)"><g data-paper-data="{&quot;isPaintingLayer&quot;:true}" fill-rule="nonzero" stroke="none" stroke-linecap="butt" stroke-linejoin="miter" stroke-miterlimit="10" stroke-dasharray="" stroke-dashoffset="0" style="mix-blend-mode: normal"><path d="M1,199.5v-29h482v29z" fill="#ff6666" stroke-width="0"/><path d="M136.5,198v-62h29v62z" fill="#6cff66" stroke-width="0"/><path d="M261.5,1v-94h29v94z" fill="#ff7363" stroke-width="0"/><path d="M194.5,185v-66h129v66z" fill="#ff6666" stroke-width="0"/><path d="M137.73607,146.88197c1.11803,2.23607 -1.11804,3.35411 -1.11804,3.35411l-2.32746,1.13564c-1.67587,0.51092 -2.97257,1.85571 -4.47624,2.75491c-0.97414,0.58255 -2.20147,0.6101 -3.21595,1.11917c-1.0742,0.53903 -1.92313,1.46634 -3,2c-3.7446,1.85568 -8.33859,2.80285 -12.30781,4.12592c-3.95458,1.3182 -8.28368,3.4137 -12.39012,4.09601c-5.85315,0.97253 -12.1246,-0.74817 -18,0c-2.01135,0.25612 -3.97241,1 -6,1c-0.77495,0.26842 -5.54847,1.94205 -6,2c-3.69461,0.47421 -7.55268,-0.43099 -11.24341,0.03875c-3.6889,0.4695 -4.99931,1.53681 -8.5575,0.96125c-4.09649,-0.66263 -7.80674,-3.35462 -11.64333,-4.74356c-4.16023,-1.5061 -8.6789,-2.5612 -12.91254,-3.86429c-4.20849,-1.29534 -8.39858,-2.43824 -12.68856,-3.44004c-1.83941,-0.42954 -3.81198,-0.44108 -5.53476,-1.21564c-1.08064,-0.48585 -1.72541,-1.62428 -2.58812,-2.43642c0,0 -1.76776,-1.76776 0,-3.53553c1.76776,-1.76776 3.53553,0 3.53553,0c1.37033,1.51757 3.68368,1.88026 5.68292,2.30909c4.41337,0.94666 8.75404,2.21412 13.06342,3.53965c4.30996,1.32571 8.9115,2.40792 13.14492,3.94207c3.47071,1.25776 7.03945,3.86544 10.74143,4.50923c2.24291,0.39005 5.34797,-0.76644 7.24831,-0.99991c3.60326,-0.44269 7.35762,0.43437 10.95079,-0.00009c2.09294,-0.25306 3.99404,-1.35148 6,-2c2.02759,0 3.98755,-0.7527 6,-1c5.86532,-0.72075 12.18856,0.97244 18,0c3.83276,-0.64135 7.91426,-2.67211 11.60988,-3.90399c3.74085,-1.24695 8.17876,-2.10009 11.69219,-3.87408c3.99182,-2.01553 7.11369,-4.64397 11.30781,-6.12592l1.67254,-0.86436c0,0 2.23607,-1.11803 3.35411,1.11804z" fill="#68ff66" stroke-width="0.5"/><path d="M329.26777,93.23223c1.76777,1.76777 0,3.53553 0,3.53553l-2.76777,1.73223c-2.19987,0 -4.42103,-0.33811 -6.59954,-0.03228c-2.08771,0.29308 -3.90897,1.73161 -6,2c-10.23284,1.31341 -20.86152,-0.6723 -31.15496,0.46483c-5.66378,0.62569 -14.02462,1.31699 -17.16537,6.4542c0,0 -1.38675,2.08013 -3.46688,0.69338c-2.08013,-1.38675 -0.69338,-3.46688 -0.69338,-3.46688c0.83498,-1.18486 1.33849,-2.69407 2.50494,-3.55458c2.02381,-1.493 7.85131,-2.9975 10.31896,-3.71412c12.75744,-3.70482 25.94916,-0.2517 38.85577,-1.81227c2.09294,-0.25306 3.91358,-1.69783 6,-2c0.27355,-0.03962 6.42874,-0.03228 7.40046,-0.03228l-0.76777,-0.26777c0,0 1.76777,-1.76777 3.53553,0z" fill="#68ff66" stroke-width="0.5"/><path d="" fill="#68ff66" stroke-width="0.5"/><path d="M381,165c0,-1.38071 1.11929,-2.5 2.5,-2.5c1.38071,0 2.5,1.11929 2.5,2.5c0,1.38071 -1.11929,2.5 -2.5,2.5c-1.38071,0 -2.5,-1.11929 -2.5,-2.5z" fill="#68ff66" stroke-width="0.5"/><path d="M386.5,59.5c1.48032,0 2.0841,0.87654 2.33037,1.59157c0.69025,0.19877 1.37091,0.41802 1.98396,0.7818c1.7659,1.04787 2.93827,2.98109 4.78405,3.88084c0.94751,0.46188 2.05988,0.52325 3,1c0.95551,0.48455 1.61683,1.4936 2.62608,1.85306c0.71534,0.25478 1.51625,-0.09758 2.27554,-0.10727c3.20788,-0.04094 5.95012,-0.29337 8.90162,-1.74579c1.84241,-0.90664 3.00124,-2.86199 4.78405,-3.88084c1.19735,-0.68427 2.60925,-0.89406 3.91387,-1.34109c4.66333,-0.04427 7.03922,-0.48558 10.98543,2.53436c2.7923,2.13689 4.78596,5.24036 7.62648,7.36007c1.34898,1.00666 2.96791,1.60991 4.32708,2.60278c0.66419,0.48519 0.96411,1.41428 1.69322,1.79501c1.87948,0.98145 4.83198,0.68092 6.76825,0.6755c3.43077,-0.0096 5.94129,0.02239 9.30103,-0.9003c1.57314,-0.43204 4.89961,-1.85695 5.22109,-3.93153c0.10615,-0.68499 -0.64294,-1.23143 -0.89383,-1.8776c-0.38152,-0.98262 -0.66667,-2 -1,-3c0,0 -0.79057,-2.37171 1.58114,-3.16228c2.37171,-0.79057 3.16228,1.58114 3.16228,1.58114c0.34379,1.03137 2.21979,6.46083 2.10617,7.1224c-1.50243,8.74866 -12.87369,9.1851 -19.47788,9.16817c-3.54816,-0.0091 -5.82546,0.32883 -9.23175,-1.3245c-0.95694,-0.46447 -1.44529,-1.58105 -2.30678,-2.20499c-2.75425,-1.99475 -5.68416,-3.79387 -8.15417,-6.13139c-1.64067,-1.55266 -3.77298,-4.71307 -6.03176,-5.4464c-1.5458,-0.50185 -3.24999,0.09517 -4.87508,0.07499c-3.07502,0.97125 -4.31236,3.2651 -7.30208,4.77807c-3.94606,1.99693 -10.49766,3.52048 -14.82284,2.14694c-1.2705,-0.40347 -2.17863,-1.5568 -3.37392,-2.14694c-0.94517,-0.46665 -2.06123,-0.52061 -3,-1c-3.2193,-1.64396 -4.33328,-3.85007 -7.69219,-4.87408l-1.70943,-3.37171c0,0 0,-2.5 2.5,-2.5z" fill="#ff6666" stroke-width="0.5"/><path d="M408.5,32v-94h29v94z" fill="#ff7363" stroke-width="0"/><path d="M-234,26c0,-1.38071 1.11929,-2.5 2.5,-2.5c1.38071,0 2.5,1.11929 2.5,2.5c0,1.38071 -1.11929,2.5 -2.5,2.5c-1.38071,0 -2.5,-1.11929 -2.5,-2.5z" fill="#6cff66" stroke-width="0.5"/><path d="M449,153c0,2.5 -2.5,2.5 -2.5,2.5h-1c-5.29124,0 -11.41852,-0.92767 -16.59954,-0.03228c-2.02948,0.35074 -4.03545,1.00453 -6.095,1.01355c-6.82024,1.73798 -12.87223,5.02109 -19.60649,6.91903c-2.39731,0.67565 -4.92718,0.7334 -7.39351,1.08097c-2.72184,0.38358 -5.27829,1.61547 -8,2c-0.7381,0.10428 -6.86395,-0.02189 -7.26217,-0.17157c-1.64585,-0.61863 -2.7059,-2.57476 -4.44375,-2.84198c-1.7443,-0.26821 -3.45203,0.75042 -5.19909,1c-2.20145,0.31449 -4.50856,0.17615 -6.60989,0.90399c0,0 -2.37171,0.79057 -3.16228,-1.58114c-0.79057,-2.37171 1.58114,-3.16228 1.58114,-3.16228c2.36956,-0.76607 4.92483,-0.74383 7.39011,-1.09601c2.26832,-0.32405 4.54342,-1.39243 6.80091,-1c1.35871,0.23619 2.71491,0.65964 3.91387,1.34109c0.70977,0.40341 0.89548,1.48729 1.64238,1.81693c1.44577,0.63807 3.17382,0.05479 4.73783,-0.17157c2.72039,-0.39372 5.27957,-1.60655 8,-2c2.20047,-0.31825 4.4712,-0.29943 6.60649,-0.91903c6.98436,-2.02667 13.2729,-5.32903 20.39351,-7.08097c1.99559,0.00931 3.93485,-0.6687 5.905,-0.98645c5.51005,-0.88867 11.80079,-0.03228 17.40046,-0.03228h1c0,0 2.5,0 2.5,2.5z" fill="#6cff66" stroke-width="0.5"/></g></g></svg>