<svg xmlns="http://www.w3.org/2000/svg" xmlns:xlink="http://www.w3.org/1999/xlink" version="1.1" width="170.41441650390624" height="186.2480041503906" viewBox="-0.09941492080688474 0.9559999942779541 170.41441650390624 186.2480041503906">
  <!-- Exported by Scratch - http://scratch.mit.edu/ -->
  <g id="ID0.1574144042097032">
    <path id="ID0.4675603983923793_1_" fill="#FAA51D" stroke="#231F20" stroke-width="1.2" d="M 95.517 17.203 C 92.685 16.94 86.782 16.622 83.531 16.778 C 74.837 17.192 66.569 20.323 66.569 20.323 L 42.629 4.7 L 46.738 39.468 C 47.926 38.029 27.328 63.013 40.341 84.014 C 53.362 105.026 81.227 114.389 115.715 107.537 C 150.205 100.68 158.432 80.815 156.147 70.307 C 153.863 59.799 140.843 55.92 140.843 55.92 C 140.843 55.92 140.678 47.682 134.723 37.586 C 131.181 31.576 119.371 22.799 119.371 22.799 L 114.113 1.556 L 100.41 14.804 L 95.517 17.203 L 95.517 17.203 Z "/>
    <path id="ID0.876089540310204_1_" fill="#FFFFFF" d="M 139.119 55.655 L 134.555 51.86 L 117.793 56.753 C 117.793 56.753 117.793 63.041 109.763 64.783 C 101.727 66.533 89.147 60.596 89.147 60.596 L 74.83 66.881 C 74.83 66.881 59.314 68.586 58.76 78.063 C 57.522 99.125 83.364 107.905 93.156 108.464 C 98.499 108.772 108.3 107.842 115.733 106.365 C 148.378 100.418 157.202 80.769 154.921 70.258 C 152.637 59.75 140.249 57.026 140.249 57.026 L 139.119 55.655 L 139.119 55.655 Z " stroke-width="1"/>
    <path id="ID0.44282719027251005_1_" fill="none" stroke="#231F20" stroke-width="1.2" d="M 18.215 76.047 C 18.215 76.047 25.768 76.735 29.201 76.54 C 32.631 76.344 39.301 75.461 39.301 75.461 "/>
    <path id="ID0.893105489667505_1_" fill="none" stroke="#231F20" stroke-width="1.2" d="M 148.748 65.963 C 148.748 65.963 157.113 64.596 161.361 63.113 C 166.353 61.382 169.715 58.433 169.715 58.433 "/>
    <path id="ID0.03574043000116944_1_" fill="none" stroke="#231F20" stroke-width="1.2" d="M 39.664 68.239 C 39.664 68.239 35.28 64.97 28.416 61.931 C 20.813 58.564 16.638 57.696 16.638 57.696 "/>
    <path id="ID0.6674723788164556_1_" fill="none" stroke="#231F20" stroke-width="1.2" d="M 149.596 76.906 C 149.596 76.906 154.61 78.935 159.771 79.453 C 164.866 79.961 168.315 79.655 168.315 79.655 "/>
    <path id="ID0.12165586883202195_1_" fill="none" stroke="#000000" stroke-linecap="round" d="M 94.856 17.306 C 100.078 18.593 102.003 20.007 102.003 20.007 " stroke-width="1"/>
    <path id="ID0.178104005753994_1_" fill="none" stroke="#000000" d="M 60.924 16.335 L 72.065 24.349 " stroke-width="1"/>
    <path id="ID0.7735752793960273_1_" fill="#FFFFFF" stroke="#231F20" d="M 130.697 37.817 C 136.074 46.053 136.274 55.455 131.142 58.808 C 126.005 62.164 117.486 58.199 112.101 49.957 C 106.707 41.719 106.517 32.324 111.653 28.966 C 116.785 25.614 125.314 29.575 130.697 37.817 L 130.697 37.817 Z " stroke-width="1"/>
    <path id="ID0.19106501014903188_1_" fill="#231F20" d="M 129.316 50.978 C 129.316 52.963 127.841 54.575 126.005 54.575 C 124.179 54.575 122.69 52.963 122.69 50.978 C 122.69 48.992 124.179 47.376 126.005 47.376 C 127.842 47.376 129.316 48.991 129.316 50.978 " stroke-width="1"/>
    <path id="ID0.06283409334719181_1_" fill="#FFFFFF" stroke="#231F20" d="M 86.612 43.8 C 91.993 52.038 91.427 61.936 85.359 65.895 C 79.287 69.866 70.003 66.395 64.624 58.157 C 59.24 49.919 59.799 40.025 65.871 36.058 C 71.945 32.093 81.227 35.558 86.612 43.8 L 86.612 43.8 Z " stroke-width="1"/>
    <path id="ID0.716460831463337_1_" fill="#231F20" d="M 83.324 54.627 C 83.324 56.615 81.847 58.227 80.011 58.227 C 78.187 58.227 76.697 56.612 76.697 54.627 C 76.697 52.642 78.187 51.028 80.011 51.028 C 81.844 51.028 83.324 52.642 83.324 54.627 " stroke-width="1"/>
    <path id="ID0.5430324394255877_1_" fill="#5E4A42" stroke="#000000" d="M 108.494 60.914 C 111.903 60.914 116.87 60.393 117.131 61.961 C 117.395 63.533 113.988 69.69 111.637 69.951 C 109.278 70.213 100.373 65.624 100.244 62.744 C 100.108 59.865 105.348 60.914 108.494 60.914 L 108.494 60.914 Z " stroke-width="1"/>
    <path id="ID0.5547774969600141_1_" fill="none" stroke="#231F20" stroke-width="1.2" d="M 84.603 74.356 C 84.603 74.356 103.63 79.972 110.747 81.522 C 117.86 83.071 130.702 84.62 130.702 84.62 C 130.702 84.62 116.009 103.46 98.837 98.677 C 81.664 93.9 81.975 83.072 84.603 74.356 L 84.603 74.356 Z "/>
    <path id="ID0.47060858411714435" fill="#FAA51D" stroke="#000000" stroke-width="1.2" d="M 70.6 177.525 C 68.572 177.525 66.55 176.708 65.071 175.094 L 59.666 169.201 L 51.346 161.322 C 49.085 159.181 48.382 155.867 49.578 152.993 C 50.775 150.12 53.599 148.263 56.734 148.38 L 75.194 148.951 L 69.14 139.895 C 66.838 136.452 67.764 131.793 71.207 129.492 C 74.65 127.191 79.309 128.117 81.61 131.559 L 95.762 152.731 C 97.324 155.067 97.449 158.079 96.086 160.536 C 94.723 162.994 92.078 164.509 89.294 164.395 L 75.211 163.958 L 76.124 164.954 C 78.924 168.007 78.719 172.751 75.666 175.551 C 74.228 176.872 72.411 177.525 70.6 177.525 L 70.6 177.525 Z "/>
    <path id="ID0.7152078151702881_1_" fill="#FAA51D" stroke="#000000" d="M 39.205 136.52 C 34.764 135.69 29.451 134.112 24.968 130.078 C 14.943 121.054 11.739 106.17 4.652 110.008 C -2.44 113.848 -2.303 137.896 20.012 145.304 C 27.702 147.863 34.719 147.872 40.408 147.718 C 41.899 147.671 54.598 146.515 58.942 140.226 C 63.284 133.937 60.264 132.37 58.777 131.501 C 57.287 130.633 45.486 137.692 39.205 136.52 L 39.205 136.52 Z " stroke-width="1"/>
    <path id="ID0.4691764716990292_1_" fill="#FFFFFF" d="M 5.688 110.476 C 2.03 111.604 0.033 119.667 1.87 126.078 C 3.706 132.496 6.714 135.313 8.974 137.844 C 11.785 139.753 7.651 133.427 11.478 130.212 C 15.293 127.005 22.02 128.531 22.02 128.531 C 22.02 128.531 16.671 121.2 13.617 116.769 C 10.726 112.52 9.593 109.553 5.688 110.476 L 5.688 110.476 Z " stroke-width="1"/>
    <path id="ID0.26425604708492756_1_" fill="#FAA51D" stroke="#231F20" stroke-width="1.2" d="M 83.874 141.986 C 86.059 140.308 88.282 137.568 91.141 133.318 C 93.524 129.775 96.106 123.061 96.106 123.061 C 97.714 118.425 99.663 110.968 92.608 109.644 C 89.753 109.109 85.107 109.464 78.504 108.217 C 71.897 106.964 66.003 103.579 61.003 112.323 C 56.005 121.071 43.367 127.532 59.061 142.781 L 83.874 141.986 Z "/>
    <path id="ID0.9608004363253713" fill="#FAA51D" stroke="#000000" stroke-width="1.2" d="M 71.986 186.604 L 47.527 186.604 C 44.745 186.604 42.192 185.064 40.893 182.604 C 39.595 180.143 39.766 177.166 41.336 174.871 L 53.768 156.692 L 52.969 136.492 C 52.805 132.353 56.028 128.866 60.167 128.702 C 64.308 128.56 67.794 131.763 67.957 135.9 L 68.853 158.581 C 68.916 160.191 68.459 161.78 67.549 163.11 L 61.74 171.604 L 71.984 171.604 C 76.127 171.604 79.484 174.961 79.484 179.104 C 79.484 183.247 76.129 186.604 71.986 186.604 L 71.986 186.604 Z "/>
    <path id="ID0.203311821911484_1_" fill="#FFFFFF" d="M 92.149 129.89 C 92.149 129.89 96.691 124.998 87.609 120.112 C 78.527 115.226 74.344 120.081 71.539 122.909 C 66.677 127.792 77.87 135.067 77.87 135.067 L 83.711 140.959 C 83.711 140.959 86.906 137.931 88.307 135.481 C 89.912 133.248 92.149 129.89 92.149 129.89 " stroke-width="1"/>
    <path id="ID0.3157269787043333" fill="#FAA51D" d="M 67.4245 128.8219 C 69.3538 130.7208 70.4314 133.123 70.6134 135.4699 C 70.7946 137.8176 70.0816 140.1088 68.4295 141.7872 C 66.7775 143.4656 64.4979 144.2148 62.1477 144.0708 C 59.7981 143.9261 57.3792 142.8866 55.4499 140.9877 C 53.5206 139.0887 52.443 136.6866 52.2611 134.3396 C 52.0798 131.9919 52.7929 129.7008 54.4449 128.0224 C 56.097 126.3439 58.3765 125.5947 60.7268 125.7387 C 63.0764 125.8835 65.4952 126.9229 67.4245 128.8219 Z " stroke-width="1.0000217754203118"/>
    <path id="ID0.290162798948586" fill="#FAA51D" stroke="#000000" stroke-width="1.2" d="M 73.272 156.382 C 71.647 156.382 70.02 155.777 68.758 154.559 L 55.123 141.396 C 53.302 139.637 52.667 136.982 53.496 134.59 L 61.515 111.458 C 62.691 108.067 66.39 106.27 69.786 107.445 C 73.178 108.621 74.974 112.324 73.799 115.716 L 67.14 134.926 L 77.788 145.205 C 80.371 147.699 80.443 151.813 77.95 154.396 C 76.675 155.718 74.975 156.382 73.272 156.382 L 73.272 156.382 Z "/>
  </g>
</svg>