<svg xmlns="http://www.w3.org/2000/svg" xmlns:xlink="http://www.w3.org/1999/xlink" version="1.1" width="173.86001892089843" height="183.7480041503906" viewBox="-0.10002133846282957 1.105999970436096 173.86001892089843 183.7480041503906">
  <!-- Exported by Scratch - http://scratch.mit.edu/ -->
  <g id="ID0.300867632497102">
    <path id="ID0.03133855387568474" fill="#FAA51D" stroke="#000000" stroke-width="1.2" d="M 95.338 137.608 C 92.192 137.608 89.471 135.34 88.935 132.203 L 86.275 116.636 C 85.671 113.098 88.049 109.739 91.588 109.134 C 95.122 108.528 98.485 110.907 99.09 114.447 L 100.771 124.283 L 115.456 123.429 C 119.039 123.24 122.114 125.957 122.322 129.541 C 122.531 133.124 119.795 136.198 116.211 136.407 L 95.721 137.598 C 95.592 137.604 95.464 137.608 95.338 137.608 L 95.338 137.608 Z "/>
    <path id="ID0.4675603983923793_1_" fill="#FAA51D" stroke="#231F20" stroke-width="1.2" d="M 98.962 17.353 C 96.13 17.09 90.227 16.772 86.976 16.928 C 78.282 17.342 70.014 20.473 70.014 20.473 L 46.074 4.85 L 50.183 39.618 C 51.371 38.179 30.773 63.163 43.786 84.164 C 56.807 105.176 84.672 114.539 119.16 107.687 C 153.65 100.83 161.877 80.965 159.592 70.457 C 157.308 59.949 144.288 56.07 144.288 56.07 C 144.288 56.07 144.123 47.832 138.168 37.736 C 134.626 31.726 122.816 22.949 122.816 22.949 L 117.558 1.706 L 103.855 14.954 L 98.962 17.353 L 98.962 17.353 Z "/>
    <path id="ID0.876089540310204_1_" fill="#FFFFFF" d="M 142.564 55.805 L 138 52.01 L 121.238 56.903 C 121.238 56.903 121.238 63.191 113.208 64.933 C 105.172 66.683 92.592 60.746 92.592 60.746 L 78.276 67.03 C 78.276 67.03 62.76 68.735 62.206 78.212 C 60.968 99.274 86.81 108.054 96.602 108.613 C 101.945 108.921 111.746 107.991 119.179 106.514 C 151.824 100.567 160.648 80.918 158.367 70.407 C 156.083 59.899 143.695 57.175 143.695 57.175 L 142.564 55.805 L 142.564 55.805 Z " stroke-width="1"/>
    <path id="ID0.44282719027251005_1_" fill="none" stroke="#231F20" stroke-width="1.2" d="M 21.66 76.197 C 21.66 76.197 29.213 76.885 32.646 76.69 C 36.076 76.494 42.746 75.611 42.746 75.611 "/>
    <path id="ID0.893105489667505_1_" fill="none" stroke="#231F20" stroke-width="1.2" d="M 152.193 66.113 C 152.193 66.113 160.558 64.746 164.806 63.263 C 169.798 61.532 173.16 58.583 173.16 58.583 "/>
    <path id="ID0.03574043000116944_1_" fill="none" stroke="#231F20" stroke-width="1.2" d="M 43.109 68.389 C 43.109 68.389 38.725 65.12 31.861 62.081 C 24.258 58.714 20.083 57.846 20.083 57.846 "/>
    <path id="ID0.6674723788164556_1_" fill="none" stroke="#231F20" stroke-width="1.2" d="M 153.041 77.056 C 153.041 77.056 158.055 79.085 163.216 79.603 C 168.311 80.111 171.76 79.805 171.76 79.805 "/>
    <path id="ID0.12165586883202195_1_" fill="none" stroke="#000000" stroke-linecap="round" d="M 98.302 17.456 C 103.524 18.743 105.449 20.157 105.449 20.157 " stroke-width="1"/>
    <path id="ID0.178104005753994_1_" fill="none" stroke="#000000" d="M 64.369 16.485 L 75.51 24.499 " stroke-width="1"/>
    <path id="ID0.7735752793960273_1_" fill="#FFFFFF" stroke="#231F20" d="M 134.143 37.967 C 139.52 46.203 139.72 55.605 134.588 58.958 C 129.451 62.314 120.932 58.349 115.547 50.107 C 110.153 41.869 109.963 32.474 115.099 29.116 C 120.23 25.764 128.76 29.725 134.143 37.967 L 134.143 37.967 Z " stroke-width="1"/>
    <path id="ID0.19106501014903188_1_" fill="#231F20" d="M 132.762 51.128 C 132.762 53.113 131.287 54.725 129.451 54.725 C 127.625 54.725 126.136 53.113 126.136 51.128 C 126.136 49.142 127.625 47.526 129.451 47.526 C 131.287 47.526 132.762 49.141 132.762 51.128 " stroke-width="1"/>
    <path id="ID0.06283409334719181_1_" fill="#FFFFFF" stroke="#231F20" d="M 90.058 43.95 C 95.439 52.188 94.873 62.086 88.805 66.045 C 82.733 70.016 73.449 66.545 68.07 58.307 C 62.686 50.069 63.245 40.175 69.317 36.208 C 75.391 32.243 84.672 35.708 90.058 43.95 L 90.058 43.95 Z " stroke-width="1"/>
    <path id="ID0.716460831463337_1_" fill="#231F20" d="M 86.77 54.777 C 86.77 56.765 85.293 58.377 83.457 58.377 C 81.633 58.377 80.143 56.762 80.143 54.777 C 80.143 52.792 81.633 51.178 83.457 51.178 C 85.289 51.178 86.77 52.792 86.77 54.777 " stroke-width="1"/>
    <path id="ID0.5430324394255877_1_" fill="#5E4A42" stroke="#000000" d="M 111.939 61.064 C 115.348 61.064 120.315 60.543 120.576 62.111 C 120.84 63.683 117.433 69.84 115.082 70.101 C 112.723 70.363 103.818 65.774 103.689 62.894 C 103.554 60.015 108.793 61.064 111.939 61.064 L 111.939 61.064 Z " stroke-width="1"/>
    <path id="ID0.5547774969600141_1_" fill="none" stroke="#231F20" stroke-width="1.2" d="M 88.048 74.506 C 88.048 74.506 107.075 80.122 114.192 81.672 C 121.305 83.221 134.147 84.77 134.147 84.77 C 134.147 84.77 119.454 103.61 102.282 98.827 C 85.109 94.05 85.42 83.222 88.048 74.506 L 88.048 74.506 Z "/>
    <path id="ID0.8360645263455808" fill="#FAA51D" stroke="#000000" stroke-width="1.2" d="M 41.639 184.254 C 41.632 184.254 41.626 184.254 41.619 184.254 L 25.271 184.213 C 23.742 184.209 22.25 183.737 20.996 182.862 L 12.338 176.816 C 10.202 175.324 8.993 172.83 9.145 170.229 C 9.297 167.627 10.789 165.291 13.084 164.059 L 39.194 150.038 L 58.73 127.75 C 61.459 124.635 66.198 124.323 69.313 127.053 C 72.428 129.783 72.74 134.522 70.01 137.637 L 49.58 160.947 C 48.988 161.623 48.279 162.186 47.488 162.611 L 35.148 169.237 L 41.658 169.254 C 45.8 169.265 49.149 172.631 49.139 176.773 C 49.128 180.908 45.772 184.254 41.639 184.254 L 41.639 184.254 Z "/>
    <path id="ID0.7152078151702881_1_" fill="#FAA51D" stroke="#000000" d="M 44.359 140.958 C 40.031 142.255 34.586 143.285 28.752 141.754 C 15.706 138.325 6.04 126.563 1.499 133.221 C -3.046 139.883 8.093 161.197 31.322 157.558 C 39.33 156.31 45.572 153.104 50.557 150.361 C 51.861 149.636 62.62 142.791 63.599 135.21 C 64.577 127.631 61.175 127.621 59.455 127.531 C 57.735 127.441 50.479 139.122 44.359 140.958 L 44.359 140.958 Z " stroke-width="1"/>
    <path id="ID0.4691764716990292_1_" fill="#FFFFFF" d="M 2.635 133.162 C -0.1 135.841 1.819 143.924 6.388 148.779 C 10.96 153.643 14.925 154.769 18.093 155.983 C 21.466 156.393 14.893 152.664 16.822 148.052 C 18.744 143.453 25.423 141.729 25.423 141.729 C 25.423 141.729 17.31 137.663 12.565 135.124 C 8.049 132.672 5.683 130.553 2.635 133.162 L 2.635 133.162 Z " stroke-width="1"/>
    <path id="ID0.26425604708492756_1_" fill="#FAA51D" stroke="#231F20" stroke-width="1.2" d="M 87.319 142.136 C 89.504 140.458 91.727 137.718 94.586 133.468 C 96.969 129.925 99.551 123.211 99.551 123.211 C 101.159 118.575 103.108 111.118 96.053 109.794 C 93.198 109.259 88.552 109.614 81.949 108.367 C 75.342 107.114 69.448 103.729 64.448 112.473 C 59.45 121.221 46.812 127.682 62.506 142.931 L 87.319 142.136 Z "/>
    <path id="ID0.8667155867442489" fill="#FAA51D" stroke="#000000" stroke-width="1.2" d="M 101.506 171.256 C 100.502 171.256 99.481 171.053 98.502 170.624 L 85.94 165.124 C 85.793 165.06 85.648 164.99 85.504 164.916 L 78.718 161.408 C 76.014 160.011 74.424 157.118 74.691 154.087 C 74.914 151.563 76.389 149.358 78.554 148.171 L 72.982 146.37 C 69.041 145.097 66.878 140.869 68.151 136.928 C 69.425 132.986 73.652 130.823 77.594 132.097 L 105.445 141.096 C 108.555 142.101 110.657 145.006 110.638 148.276 C 110.618 151.546 108.485 154.426 105.363 155.396 L 102.879 156.167 L 104.518 156.885 C 108.313 158.546 110.041 162.969 108.38 166.763 C 107.147 169.577 104.395 171.256 101.506 171.256 L 101.506 171.256 Z "/>
    <path id="ID0.203311821911484_1_" fill="#FFFFFF" d="M 95.595 130.04 C 95.595 130.04 100.137 125.148 91.055 120.262 C 81.973 115.376 77.79 120.231 74.985 123.059 C 70.123 127.942 81.316 135.217 81.316 135.217 L 90.139 136.629 C 90.139 136.629 90.352 138.08 91.752 135.631 C 93.357 133.398 95.595 130.04 95.595 130.04 " stroke-width="1"/>
    <path id="ID0.4310653228312731" fill="#FAA51D" d="M 75.8433 128.996 C 77.7726 130.895 78.8502 133.2971 79.0321 135.6441 C 79.2133 137.9918 78.5003 140.2829 76.8483 141.9614 C 75.1962 143.6398 72.9167 144.389 70.5664 144.245 C 68.2168 144.1002 65.7979 143.0608 63.8687 141.1618 C 61.9394 139.2629 60.8618 136.8608 60.6798 134.5138 C 60.4986 132.1661 61.2116 129.8749 62.8637 128.1965 C 64.5157 126.5181 66.7953 125.7689 69.1455 125.9129 C 71.4951 126.0576 73.914 127.0971 75.8433 128.996 Z " stroke-width="1.0000217754203118"/>
    <path id="ID0.09932493651285768" fill="#FAA51D" stroke="#000000" stroke-width="1.2" d="M 51.252 144.593 C 47.795 144.593 44.919 141.87 44.763 138.383 L 43.927 119.66 C 43.796 116.725 45.65 114.067 48.449 113.176 L 66.961 107.284 C 70.382 106.199 74.038 108.087 75.126 111.507 C 76.215 114.928 74.324 118.584 70.903 119.673 L 57.135 124.054 L 57.749 137.803 C 57.909 141.389 55.132 144.426 51.545 144.586 C 51.449 144.592 51.35 144.593 51.252 144.593 L 51.252 144.593 Z "/>
  </g>
</svg>