<svg xmlns="http://www.w3.org/2000/svg" xmlns:xlink="http://www.w3.org/1999/xlink" version="1.1" width="168.9355041503906" height="181.74899597167968" viewBox="-0.10051021575927732 0.556000018119812 168.9355041503906 181.74899597167968">
  <!-- Exported by Scratch - http://scratch.mit.edu/ -->
  <g id="ID0.5664286147803068">
    <path id="ID0.3949888963252306" fill="#FAA51D" stroke="#000000" stroke-width="1.2" d="M 108.985 124.875 C 108.709 124.875 108.431 124.857 108.154 124.821 L 88.152 122.242 C 84.591 121.783 82.077 118.525 82.536 114.965 C 82.995 111.405 86.257 108.881 89.814 109.350 L 107.724 111.659 L 127.409 100.920 C 130.561 99.202 134.509 100.361 136.228 103.513 C 137.947 106.664 136.787 110.613 133.635 112.332 L 112.098 124.082 C 111.140 124.604 110.068 124.875 108.985 124.875 L 108.985 124.875 Z "/>
    <path id="ID0.7152078151702881_1_" fill="#FAA51D" stroke="#000000" d="M 36.299 131.391 C 32.056 129.839 27.076 127.405 23.320 122.687 C 14.922 112.130 14.218 96.922 6.595 99.538 C -1.033 102.155 -4.868 125.895 15.919 136.885 C 23.082 140.679 30 141.847 35.636 142.633 C 37.115 142.833 49.830 143.789 55.153 138.303 C 60.473 132.817 57.754 130.774 56.430 129.671 C 55.105 128.570 42.301 133.583 36.299 131.391 L 36.299 131.391 Z " stroke-width="1"/>
    <path id="ID0.4691764716990292_1_" fill="#FFFFFF" d="M 7.542 100.171 C 3.748 100.680 0.447 108.304 1.201 114.929 C 1.952 121.562 4.454 124.837 6.265 127.705 C 8.722 130.052 5.689 123.131 9.994 120.591 C 14.286 118.058 20.669 120.674 20.669 120.674 C 20.669 120.674 16.603 112.561 14.322 107.687 C 12.172 103.019 11.544 99.906 7.542 100.171 L 7.542 100.171 Z " stroke-width="1"/>
    <path id="ID0.4675603983923793_1_" fill="#FAA51D" stroke="#231F20" stroke-width="1.2" d="M 94.036 16.803 C 91.204 16.540 85.301 16.222 82.050 16.378 C 73.356 16.792 65.088 19.923 65.088 19.923 L 41.148 4.300 L 45.257 39.068 C 46.445 37.629 25.847 62.613 38.860 83.614 C 51.881 104.626 79.746 113.989 114.234 107.137 C 148.724 100.280 156.951 80.415 154.666 69.907 C 152.382 59.399 139.362 55.520 139.362 55.520 C 139.362 55.520 139.197 47.282 133.242 37.186 C 129.700 31.176 117.890 22.399 117.890 22.399 L 112.632 1.156 L 98.930 14.404 L 94.036 16.803 L 94.036 16.803 Z "/>
    <path id="ID0.876089540310204_1_" fill="#FFFFFF" d="M 137.639 55.255 L 133.075 51.460 L 116.313 56.353 C 116.313 56.353 116.313 62.641 108.283 64.383 C 100.247 66.133 87.667 60.196 87.667 60.196 L 73.350 66.481 C 73.350 66.481 57.834 68.186 57.280 77.663 C 56.042 98.725 81.884 107.505 91.676 108.064 C 97.019 108.372 106.820 107.442 114.253 105.965 C 146.898 100.018 155.722 80.369 153.441 69.858 C 151.157 59.350 138.769 56.626 138.769 56.626 L 137.639 55.255 L 137.639 55.255 Z " stroke-width="1"/>
    <path id="ID0.44282719027251005_1_" fill="none" stroke="#231F20" stroke-width="1.2" d="M 16.734 75.647 C 16.734 75.647 24.287 76.335 27.720 76.140 C 31.150 75.944 37.820 75.061 37.820 75.061 "/>
    <path id="ID0.893105489667505_1_" fill="none" stroke="#231F20" stroke-width="1.2" d="M 147.268 65.563 C 147.268 65.563 155.633 64.196 159.881 62.713 C 164.873 60.982 168.235 58.033 168.235 58.033 "/>
    <path id="ID0.03574043000116944_1_" fill="none" stroke="#231F20" stroke-width="1.2" d="M 38.184 67.839 C 38.184 67.839 33.800 64.570 26.936 61.531 C 19.333 58.164 15.158 57.296 15.158 57.296 "/>
    <path id="ID0.6674723788164556_1_" fill="none" stroke="#231F20" stroke-width="1.2" d="M 148.115 76.506 C 148.115 76.506 153.129 78.535 158.290 79.053 C 163.385 79.561 166.834 79.255 166.834 79.255 "/>
    <path id="ID0.12165586883202195_1_" fill="none" stroke="#000000" stroke-linecap="round" d="M 93.376 16.906 C 98.598 18.193 100.523 19.607 100.523 19.607 " stroke-width="1"/>
    <path id="ID0.178104005753994_1_" fill="none" stroke="#000000" d="M 59.443 15.935 L 70.584 23.949 " stroke-width="1"/>
    <path id="ID0.7735752793960273_1_" fill="#FFFFFF" stroke="#231F20" d="M 129.217 37.417 C 134.594 45.653 134.794 55.055 129.662 58.408 C 124.525 61.764 116.006 57.799 110.621 49.557 C 105.227 41.319 105.037 31.924 110.173 28.566 C 115.305 25.214 123.834 29.175 129.217 37.417 L 129.217 37.417 Z " stroke-width="1"/>
    <path id="ID0.19106501014903188_1_" fill="#231F20" d="M 127.836 50.578 C 127.836 52.563 126.361 54.175 124.525 54.175 C 122.699 54.175 121.210 52.563 121.210 50.578 C 121.210 48.592 122.699 46.976 124.525 46.976 C 126.361 46.976 127.836 48.591 127.836 50.578 " stroke-width="1"/>
    <path id="ID0.06283409334719181_1_" fill="#FFFFFF" stroke="#231F20" d="M 85.132 43.400 C 90.513 51.638 89.947 61.536 83.879 65.495 C 77.807 69.466 68.523 65.995 63.144 57.757 C 57.760 49.519 58.319 39.625 64.391 35.658 C 70.465 31.693 79.746 35.158 85.132 43.400 L 85.132 43.400 Z " stroke-width="1"/>
    <path id="ID0.716460831463337_1_" fill="#231F20" d="M 81.844 54.227 C 81.844 56.215 80.367 57.827 78.531 57.827 C 76.707 57.827 75.217 56.212 75.217 54.227 C 75.217 52.242 76.707 50.628 78.531 50.628 C 80.363 50.628 81.844 52.242 81.844 54.227 " stroke-width="1"/>
    <path id="ID0.5430324394255877_1_" fill="#5E4A42" stroke="#000000" d="M 107.014 60.514 C 110.423 60.514 115.390 59.993 115.651 61.561 C 115.915 63.133 112.508 69.290 110.157 69.551 C 107.798 69.813 98.893 65.224 98.764 62.344 C 98.628 59.465 103.867 60.514 107.014 60.514 L 107.014 60.514 Z " stroke-width="1"/>
    <path id="ID0.5547774969600141_1_" fill="none" stroke="#231F20" stroke-width="1.2" d="M 83.122 73.956 C 83.122 73.956 102.149 79.572 109.266 81.122 C 116.379 82.671 129.221 84.220 129.221 84.220 C 129.221 84.220 114.528 103.060 97.356 98.277 C 80.184 93.500 80.494 82.672 83.122 73.956 L 83.122 73.956 Z "/>
    <path id="ID0.4989022985100746" fill="#FAA51D" stroke="#000000" stroke-width="1.2" d="M 33.123 179.125 C 33.023 179.125 32.924 179.123 32.823 179.119 L 20.341 178.629 C 17.089 178.501 14.291 176.291 13.413 173.157 L 10.184 161.625 C 9.627 159.637 9.915 157.506 10.979 155.736 C 12.043 153.966 13.791 152.715 15.808 152.274 L 46.473 145.588 L 65.812 133.036 C 69.287 130.781 73.931 131.768 76.186 135.244 C 78.441 138.719 77.453 143.363 73.978 145.618 L 53.490 158.916 C 52.731 159.409 51.889 159.760 51.005 159.953 L 32.083 164.078 L 33.412 164.131 C 37.551 164.293 40.774 167.780 40.612 171.919 C 40.453 175.958 37.129 179.125 33.123 179.125 L 33.123 179.125 Z "/>
    <path id="ID0.26425604708492756_1_" fill="#FAA51D" stroke="#231F20" stroke-width="1.2" d="M 82.394 141.586 C 84.579 139.908 86.802 137.168 89.661 132.918 C 92.044 129.375 94.626 122.661 94.626 122.661 C 96.234 118.025 98.183 110.568 91.128 109.244 C 88.273 108.709 83.627 109.064 77.024 107.817 C 70.417 106.564 64.523 103.179 59.523 111.923 C 54.525 120.671 41.887 127.132 57.581 142.381 L 82.394 141.586 Z "/>
    <path id="ID0.8363489569164813" fill="#FAA51D" stroke="#000000" stroke-width="1.2" d="M 101.214 181.705 C 98.516 181.705 95.942 180.242 94.606 177.752 L 84.182 158.337 L 62.152 145.243 C 58.591 143.127 57.421 138.524 59.537 134.964 C 61.653 131.404 66.255 130.233 69.816 132.349 L 93.637 146.507 C 94.809 147.203 95.768 148.206 96.412 149.406 L 104.807 165.041 L 122.088 159.110 C 126.004 157.766 130.272 159.851 131.617 163.769 C 132.961 167.687 130.875 171.953 126.957 173.297 L 103.647 181.297 C 102.846 181.573 102.023 181.705 101.214 181.705 L 101.214 181.705 Z "/>
    <path id="ID0.203311821911484_1_" fill="#FFFFFF" d="M 90.669 129.490 C 90.669 129.490 95.211 124.598 86.129 119.712 C 77.047 114.826 72.864 119.681 70.059 122.509 C 65.197 127.392 76.390 134.667 76.390 134.667 L 82.231 140.559 C 82.231 140.559 85.426 137.531 86.827 135.081 C 88.432 132.848 90.669 129.490 90.669 129.490 " stroke-width="1"/>
    <path id="ID0.3082728930748999" fill="#FAA51D" d="M 70.9302 130.4666 C 72.8595 132.3655 73.9371 134.7676 74.1191 137.1146 C 74.3003 139.4623 73.5873 141.7535 71.9352 143.4319 C 70.2832 145.1103 68.0036 145.8595 65.6534 145.7155 C 63.3038 145.5707 60.8849 144.5313 58.9556 142.6323 C 57.0263 140.7334 55.9487 138.3313 55.7668 135.9843 C 55.5855 133.6366 56.2986 131.3454 57.9506 129.667 C 59.6027 127.9886 61.8822 127.2394 64.2325 127.3834 C 66.5821 127.5282 69.0009 128.5676 70.9302 130.4666 Z " stroke-width="1.0000217754203118"/>
    <path id="ID0.17930793901905417" fill="#FAA51D" stroke="#000000" stroke-width="1.2" d="M 39.238 140.295 C 39.190 140.295 39.142 140.295 39.094 140.293 C 35.505 140.216 32.659 137.243 32.737 133.654 L 33.152 114.524 C 33.225 111.184 35.817 108.443 39.148 108.184 L 62.233 106.393 C 65.827 106.114 68.940 108.791 69.216 112.371 C 69.494 115.950 66.818 119.077 63.238 119.354 L 46.021 120.690 L 45.734 133.935 C 45.657 137.477 42.762 140.295 39.238 140.295 L 39.238 140.295 Z "/>
  </g>
</svg>