<svg xmlns="http://www.w3.org/2000/svg" xmlns:xlink="http://www.w3.org/1999/xlink" version="1.1" width="171.582064828873" height="186.2549926853183" viewBox="-0.09946213245407798 0.7500000190733268 171.582064828873 186.2549926853183">
  <!-- Exported by Scratch - http://scratch.mit.edu/ -->
  <path id="ID0.38613532949239016" fill="#FAA51D" stroke="#000000" d="M 40.289 136.403 C 36.365 139.304 31.739 142.956 25.914 145.943 C 18.801 149.336 -0.713 154.293 0.56 165.065 C 7.914 179.127 29.985 161.44 35.906 154.9 C 41.249 149.259 45.565 144.279 49.544 140.547 C 50.582 139.566 60.129 132.009 60.047 126.608 C 59.962 121.205 55.786 121.614 53.635 121.875 C 51.48 122.139 45.838 132.299 40.289 136.403 L 40.289 136.403 Z " stroke-width="1"/>
  <path id="ID0.725371353328228" fill="#FFFFFF" d="M 1.185 163.801 C 1.488 168.168 8.574 170.026 14.424 168.463 C 20.281 166.902 23.25 164.494 25.965 162.851 C 28.313 160.558 21.804 163.371 20.256 158.98 C 18.713 154.604 23.079 148.297 23.079 148.297 C 23.079 148.297 14.201 151.954 9.111 154.895 C 4.245 157.675 1.118 159.134 1.185 163.801 L 1.185 163.801 Z " stroke-width="1"/>
  <path id="ID0.14834140241146088" fill="#FAA51D" stroke="#000000" stroke-width="1.2" d="M 105.392 123.281 C 104.711 123.281 104.027 123.175 103.362 122.956 L 85.485 117.075 C 82.075 115.953 80.22 112.279 81.341 108.869 C 82.463 105.46 86.135 103.604 89.547 104.725 L 104.03 109.49 L 117.23 98.654 C 120.004 96.377 124.101 96.78 126.378 99.554 C 128.655 102.328 128.252 106.424 125.478 108.702 L 109.516 121.805 C 108.338 122.773 106.876 123.281 105.392 123.281 L 105.392 123.281 Z "/>
  <path id="ID0.8825720101594925" fill="#FAA51D" stroke="#000000" stroke-width="1.2" d="M 97.779 167.326 C 96.713 167.326 95.629 167.097 94.599 166.614 L 88.015 163.526 C 87.861 163.454 87.708 163.376 87.559 163.294 L 82.046 160.233 C 78.478 158.252 77.149 153.781 79.056 150.171 L 84.106 140.612 L 72.498 138.95 C 68.398 138.363 65.55 134.563 66.138 130.463 C 66.725 126.363 70.53 123.521 74.625 124.103 L 96.777 127.275 C 99.192 127.621 101.288 129.12 102.396 131.294 C 103.503 133.469 103.485 136.046 102.344 138.203 L 95.791 150.606 L 100.968 153.034 C 104.718 154.793 106.332 159.259 104.573 163.009 C 103.299 165.729 100.598 167.326 97.779 167.326 L 97.779 167.326 Z "/>
  <path id="ID0.26425604708492756_1_" fill="#FAA51D" stroke="#231F20" stroke-width="1.2" d="M 84.061 137.786 C 86.246 136.108 88.469 133.368 91.328 129.118 C 93.711 125.575 96.293 118.861 96.293 118.861 C 97.901 114.225 99.85 106.768 92.795 105.444 C 89.94 104.909 85.294 105.264 78.691 104.017 C 72.084 102.764 66.19 99.379 61.19 108.123 C 56.192 116.871 43.554 123.332 59.248 138.581 L 84.061 137.786 Z "/>
  <path id="ID0.4811783879995346" fill="#FAA51D" stroke="#000000" stroke-width="1.2" d="M 55.169 186.405 C 54.174 186.405 53.162 186.206 52.19 185.785 L 33.731 177.785 C 31.401 176.775 29.741 174.655 29.318 172.151 C 28.895 169.647 29.769 167.099 31.638 165.38 L 49.806 148.683 L 54.369 130.198 C 55.359 126.177 59.424 123.716 63.447 124.714 C 67.468 125.706 69.925 129.771 68.931 133.792 L 63.827 154.473 C 63.474 155.905 62.707 157.201 61.621 158.199 L 50.29 168.613 L 58.155 172.021 C 61.956 173.668 63.701 178.084 62.054 181.885 C 60.828 184.715 58.067 186.405 55.169 186.405 L 55.169 186.405 Z "/>
  <path id="ID0.203311821911484_1_" fill="#FFFFFF" d="M 92.336 125.689 C 92.336 125.689 96.878 120.797 87.796 115.911 C 78.714 111.025 74.531 115.88 71.726 118.708 C 66.864 123.591 77.057 134.866 77.057 134.866 L 83.898 136.758 C 83.898 136.758 87.093 133.73 88.494 131.28 C 90.099 129.048 92.336 125.689 92.336 125.689 " stroke-width="1"/>
  <path id="ID0.7054531346075237" fill="#FAA51D" d="M 69.616 137.579 C 66.309 140.938 60.498 140.58 56.637 136.779 C 52.775 132.979 52.325 127.173 55.633 123.814 C 58.94 120.454 64.752 118.811 68.613 122.612 C 75.186 129.08 75.548 131.551 69.616 137.579 Z " stroke-width="1"/>
  <path id="ID0.4675603983923793_1_" fill="#FAA51D" stroke="#231F20" stroke-width="1.2" d="M 82.716 13.348 C 79.891 13.676 74.049 14.583 70.901 15.407 C 62.479 17.607 60.668 21.122 55.036 22.377 L 21.35 26.5 L 39.584 45.202 C 45.42 51.5 25.451 72.246 42.519 90.108 C 59.596 107.98 88.794 111.39 121.125 97.567 C 153.457 83.738 157.406 62.603 153.001 52.793 C 148.598 42.983 135.058 41.875 135.058 41.875 C 135.058 41.875 133.196 33.849 125.286 25.199 C 120.579 20.05 110.169 20.35 107.213 13.899 L 114.85 1.35 L 87.009 9.99 L 82.716 13.348 L 82.716 13.348 Z "/>
  <path id="ID0.876089540310204_1_" fill="#FFFFFF" d="M 133.316 41.972 L 128.066 39.201 L 112.675 47.448 C 112.675 47.448 113.974 53.6 106.476 56.963 C 98.974 60.334 85.439 57.122 85.439 57.122 L 72.728 66.226 C 72.728 66.226 57.899 71.097 59.312 80.485 C 62.448 101.348 89.545 104.605 99.243 103.131 C 104.534 102.329 113.931 99.397 120.9 96.417 C 151.614 83.859 156.193 62.813 151.791 52.998 C 147.387 43.188 134.704 43.079 134.704 43.079 L 133.316 41.972 L 133.316 41.972 Z " stroke-width="1"/>
  <path id="ID0.44282719027251005_1_" fill="none" stroke="#231F20" stroke-width="1.1999999745313612" d="M 40.9351 82.2283 C 40.9351 82.2283 35.2526 87.2509 33.0369 89.8814 C 30.8264 92.5106 26.891 97.969 26.891 97.969 "/>
  <path id="ID0.893105489667505_1_" fill="none" stroke="#231F20" stroke-width="1.1999999597758766" d="M 170.8826 51.458 C 170.8826 51.458 162.5151 50.1049 158.015 50.1667 C 152.7315 50.2284 148.6083 51.9589 148.6083 51.9589 "/>
  <path id="ID0.03574043000116944_1_" fill="none" stroke="#231F20" stroke-width="1.2000000095370622" d="M 38.2885 77.8244 C 38.2885 77.8244 32.8551 78.4388 25.7687 80.9169 C 17.9192 83.6604 14.2804 85.8832 14.2804 85.8832 "/>
  <path id="ID0.6674723788164556_1_" fill="none" stroke="#231F20" stroke-width="1.1999999859023984" d="M 168.4692 65.5747 C 168.4692 65.5747 164.0306 62.4846 159.1123 60.8361 C 154.2566 59.2119 150.8266 58.7448 150.8266 58.7448 "/>
  <path id="ID0.12165586883202195_1_" fill="none" stroke="#000000" stroke-linecap="round" d="M 82.091 13.585 C 87.466 13.767 89.643 14.752 89.643 14.752 " stroke-width="1"/>
  <path id="ID0.178104005753994_1_" fill="none" stroke="#000000" d="M 48.688 19.639 L 61.244 25.181 " stroke-width="1"/>
  <path id="ID0.7735752793960273_1_" fill="#FFFFFF" stroke="#231F20" d="M 121.394 26.257 C 128.356 33.206 130.493 42.363 126.163 46.704 C 121.83 51.048 112.676 48.927 105.706 41.975 C 98.727 35.027 96.602 25.874 100.935 21.528 C 105.263 17.188 114.426 19.303 121.394 26.257 L 121.394 26.257 Z " stroke-width="1"/>
  <path id="ID0.19106501014903188_1_" fill="#231F20" d="M 120.76 34.418 C 121.169 36.361 120.059 38.242 118.263 38.621 C 116.476 38.998 114.686 37.727 114.276 35.786 C 113.867 33.843 114.991 31.955 116.777 31.578 C 118.573 31.198 120.35 32.475 120.76 34.418 " stroke-width="1"/>
  <path id="ID0.06283409334719181_1_" fill="#FFFFFF" stroke="#231F20" d="M 79.493 41.21 C 86.459 48.16 87.948 57.961 82.828 63.088 C 77.706 68.226 67.905 66.746 60.941 59.796 C 53.973 52.847 52.477 43.051 57.6 37.916 C 62.726 32.782 72.522 34.257 79.493 41.21 L 79.493 41.21 Z " stroke-width="1"/>
  <path id="ID0.716460831463337_1_" fill="#231F20" d="M 77.511 49.482 C 77.921 51.427 76.809 53.309 75.013 53.688 C 73.228 54.065 71.437 52.792 71.027 50.85 C 70.618 48.908 71.743 47.021 73.528 46.645 C 75.319 46.267 77.102 47.54 77.511 49.482 " stroke-width="1"/>
  <path id="ID0.5430324394255877_1_" fill="#5E4A42" stroke="#000000" d="M 104.837 46.938 C 108.173 46.235 112.925 44.699 113.504 46.18 C 114.086 47.663 112.024 54.391 109.777 55.132 C 107.522 55.875 97.863 53.223 97.142 50.432 C 96.415 47.644 101.757 47.588 104.837 46.938 L 104.837 46.938 Z " stroke-width="1"/>
  <path id="ID0.5547774969600141_1_" fill="none" stroke="#231F20" stroke-width="1.2" d="M 83.834 71.522 C 83.834 71.522 103.61 73.089 110.894 73.137 C 118.174 73.184 131.059 72.049 131.059 72.049 C 131.059 72.049 120.571 93.516 102.782 92.38 C 84.992 91.252 83.062 80.594 83.834 71.522 L 83.834 71.522 Z "/>
  <path id="ID0.6706311674788594" fill="#FAA51D" stroke="#000000" stroke-width="1.2" d="M 71.84 115.889 C 68.977 115.889 66.354 113.982 65.569 111.085 C 64.631 107.62 66.679 104.051 70.145 103.112 L 85.345 98.997 L 94.67 80.726 C 96.301 77.529 100.215 76.258 103.414 77.892 C 106.611 79.524 107.881 83.439 106.248 86.636 L 95.613 107.473 C 94.779 109.107 93.294 110.313 91.522 110.792 L 73.541 115.66 C 72.974 115.814 72.402 115.889 71.84 115.889 L 71.84 115.889 Z "/>
</svg>