<svg xmlns="http://www.w3.org/2000/svg" xmlns:xlink="http://www.w3.org/1999/xlink" version="1.1" width="172.67760009765624" height="189.2480041503906" viewBox="-0.10058811902999876 0.9559999942779541 172.67760009765624 189.2480041503906">
  <!-- Exported by Scratch - http://scratch.mit.edu/ -->
  <g id="ID0.8581068846397102">
    <path id="ID0.45085976691916585" fill="#FAA51D" stroke="#000000" stroke-width="1.2" d="M 54.407 147.304 C 50.985 147.304 48.119 144.63 47.924 141.171 L 46.709 119.677 C 46.549 116.855 48.231 114.253 50.87 113.241 L 68.435 106.503 C 71.784 105.217 75.546 106.892 76.831 110.243 C 78.117 113.595 76.442 117.354 73.091 118.639 L 59.955 123.679 L 60.901 140.436 C 61.104 144.021 58.363 147.09 54.779 147.292 C 54.655 147.301 54.53 147.304 54.407 147.304 L 54.407 147.304 Z "/>
    <path id="ID0.4675603983923793_1_" fill="#FAA51D" stroke="#231F20" stroke-width="1.2" d="M 97.779 17.203 C 94.947 16.94 89.044 16.622 85.793 16.778 C 77.099 17.192 68.831 20.323 68.831 20.323 L 44.891 4.7 L 49 39.468 C 50.188 38.029 29.59 63.013 42.603 84.014 C 55.624 105.026 83.489 114.389 117.977 107.537 C 152.467 100.68 160.694 80.815 158.409 70.307 C 156.125 59.799 143.105 55.92 143.105 55.92 C 143.105 55.92 142.94 47.682 136.985 37.586 C 133.443 31.576 121.633 22.799 121.633 22.799 L 116.375 1.556 L 102.672 14.804 L 97.779 17.203 L 97.779 17.203 Z "/>
    <path id="ID0.876089540310204_1_" fill="#FFFFFF" d="M 141.381 55.655 L 136.817 51.86 L 120.055 56.753 C 120.055 56.753 120.055 63.041 112.025 64.783 C 103.989 66.533 91.409 60.596 91.409 60.596 L 77.093 66.88 C 77.093 66.88 61.577 68.585 61.023 78.062 C 59.785 99.124 85.627 107.904 95.419 108.463 C 100.762 108.771 110.563 107.841 117.996 106.364 C 150.641 100.417 159.465 80.768 157.184 70.257 C 154.9 59.749 142.512 57.025 142.512 57.025 L 141.381 55.655 L 141.381 55.655 Z " stroke-width="1"/>
    <path id="ID0.44282719027251005_1_" fill="none" stroke="#231F20" stroke-width="1.2" d="M 20.477 76.047 C 20.477 76.047 28.03 76.735 31.463 76.54 C 34.893 76.344 41.563 75.461 41.563 75.461 "/>
    <path id="ID0.893105489667505_1_" fill="none" stroke="#231F20" stroke-width="1.2" d="M 151.01 65.963 C 151.01 65.963 159.375 64.596 163.623 63.113 C 168.615 61.382 171.977 58.433 171.977 58.433 "/>
    <path id="ID0.03574043000116944_1_" fill="none" stroke="#231F20" stroke-width="1.2" d="M 41.926 68.239 C 41.926 68.239 37.542 64.97 30.678 61.931 C 23.076 58.565 18.9 57.696 18.9 57.696 "/>
    <path id="ID0.6674723788164556_1_" fill="none" stroke="#231F20" stroke-width="1.2" d="M 151.858 76.906 C 151.858 76.906 156.872 78.935 162.033 79.453 C 167.128 79.961 170.577 79.655 170.577 79.655 "/>
    <path id="ID0.12165586883202195_1_" fill="none" stroke="#000000" stroke-linecap="round" d="M 97.119 17.306 C 102.341 18.593 104.266 20.007 104.266 20.007 " stroke-width="1"/>
    <path id="ID0.178104005753994_1_" fill="none" stroke="#000000" d="M 63.186 16.335 L 74.327 24.349 " stroke-width="1"/>
    <path id="ID0.7735752793960273_1_" fill="#FFFFFF" stroke="#231F20" d="M 132.959 37.817 C 138.336 46.053 138.536 55.455 133.404 58.808 C 128.267 62.164 119.748 58.199 114.363 49.957 C 108.969 41.719 108.779 32.324 113.915 28.966 C 119.047 25.614 127.577 29.575 132.959 37.817 L 132.959 37.817 Z " stroke-width="1"/>
    <path id="ID0.19106501014903188_1_" fill="#231F20" d="M 131.579 50.978 C 131.579 52.963 130.104 54.575 128.268 54.575 C 126.442 54.575 124.953 52.963 124.953 50.978 C 124.953 48.992 126.442 47.376 128.268 47.376 C 130.104 47.376 131.579 48.991 131.579 50.978 " stroke-width="1"/>
    <path id="ID0.06283409334719181_1_" fill="#FFFFFF" stroke="#231F20" d="M 88.875 43.8 C 94.256 52.038 93.69 61.936 87.622 65.895 C 81.55 69.866 72.266 66.395 66.887 58.157 C 61.503 49.919 62.062 40.025 68.134 36.058 C 74.208 32.093 83.489 35.558 88.875 43.8 L 88.875 43.8 Z " stroke-width="1"/>
    <path id="ID0.716460831463337_1_" fill="#231F20" d="M 85.586 54.627 C 85.586 56.615 84.109 58.227 82.273 58.227 C 80.449 58.227 78.959 56.612 78.959 54.627 C 78.959 52.642 80.449 51.028 82.273 51.028 C 84.106 51.028 85.586 52.642 85.586 54.627 " stroke-width="1"/>
    <path id="ID0.5430324394255877_1_" fill="#5E4A42" stroke="#000000" d="M 110.756 60.914 C 114.165 60.914 119.132 60.393 119.393 61.961 C 119.657 63.533 116.25 69.69 113.899 69.951 C 111.54 70.213 102.635 65.624 102.506 62.744 C 102.371 59.865 107.61 60.914 110.756 60.914 L 110.756 60.914 Z " stroke-width="1"/>
    <path id="ID0.5547774969600141_1_" fill="none" stroke="#231F20" stroke-width="1.2" d="M 86.865 74.356 C 86.865 74.356 105.892 79.972 113.009 81.522 C 120.122 83.071 132.964 84.62 132.964 84.62 C 132.964 84.62 118.271 103.46 101.099 98.677 C 83.926 93.9 84.237 83.072 86.865 74.356 L 86.865 74.356 Z "/>
    <path id="ID0.5016229040920734" fill="#FAA51D" stroke="#000000" stroke-width="1.2" d="M 100.518 174.106 C 99.616 174.106 98.699 173.942 97.807 173.596 L 79.752 166.591 C 76.946 165.502 75.063 162.842 74.969 159.834 C 74.874 156.825 76.587 154.052 79.32 152.79 L 90.133 147.795 L 81.086 144.764 C 77.158 143.448 75.041 139.198 76.357 135.27 C 77.672 131.342 81.92 129.225 85.851 130.541 L 112.804 139.572 C 115.718 140.549 117.742 143.204 117.91 146.273 C 118.078 149.342 116.356 152.203 113.566 153.492 L 101.649 158.997 L 103.231 159.611 C 107.092 161.109 109.008 165.455 107.51 169.316 C 106.36 172.286 103.523 174.106 100.518 174.106 L 100.518 174.106 Z "/>
    <path id="ID0.7152078151702881_1_" fill="#FAA51D" stroke="#000000" d="M 44.549 141.006 C 40.482 142.975 35.27 144.859 29.268 144.275 C 15.842 142.965 4.427 132.891 1.003 140.186 C -2.424 147.486 11.963 166.756 34.318 159.469 C 42.025 156.961 47.677 152.803 52.164 149.302 C 53.336 148.379 62.868 139.908 62.63 132.27 C 62.39 124.631 59.029 125.164 57.317 125.347 C 55.605 125.532 50.298 138.22 44.549 141.006 L 44.549 141.006 Z " stroke-width="1"/>
    <path id="ID0.4691764716990292_1_" fill="#FFFFFF" d="M 2.116 139.947 C -0.158 143.026 3.022 150.7 8.307 154.768 C 13.594 158.843 17.688 159.324 21.007 160.019 C 24.403 159.885 17.319 157.249 18.491 152.391 C 19.657 147.544 25.975 144.779 25.975 144.779 C 25.975 144.779 17.319 142.056 12.231 140.304 C 7.383 138.601 4.709 136.887 2.116 139.947 L 2.116 139.947 Z " stroke-width="1"/>
    <path id="ID0.26425604708492756_1_" fill="#FAA51D" stroke="#231F20" stroke-width="1.2" d="M 86.136 141.986 C 88.321 140.308 90.544 137.568 93.403 133.318 C 95.786 129.775 98.368 123.061 98.368 123.061 C 99.976 118.425 101.925 110.968 94.87 109.644 C 92.015 109.109 87.369 109.464 80.766 108.217 C 74.159 106.964 68.265 103.579 63.265 112.323 C 58.267 121.071 45.629 127.532 61.323 142.781 L 86.136 141.986 Z "/>
    <path id="ID0.9586228230036795" fill="#FAA51D" stroke="#000000" stroke-width="1.2" d="M 49.249 189.604 L 35.126 189.604 C 33.995 189.604 32.879 189.348 31.86 188.856 L 21.523 183.856 C 18.919 182.596 17.272 179.953 17.289 177.06 C 17.306 174.168 18.984 171.543 21.602 170.315 L 55.931 154.202 L 55.231 136.492 C 55.067 132.353 58.29 128.866 62.429 128.702 C 66.57 128.536 70.056 131.762 70.219 135.9 L 71.115 158.581 C 71.234 161.594 69.537 164.385 66.807 165.666 L 47.765 174.604 L 49.246 174.604 C 53.389 174.604 56.746 177.961 56.746 182.104 C 56.746 186.247 53.391 189.604 49.249 189.604 L 49.249 189.604 Z "/>
    <path id="ID0.203311821911484_1_" fill="#FFFFFF" d="M 94.412 129.89 C 94.412 129.89 98.954 124.998 89.872 120.112 C 80.79 115.226 76.607 120.081 73.802 122.909 C 68.94 127.792 80.133 135.067 80.133 135.067 L 85.974 140.959 C 85.974 140.959 89.169 137.931 90.57 135.481 C 92.174 133.248 94.412 129.89 94.412 129.89 " stroke-width="1"/>
    <path id="ID0.005536464974284172" fill="#FAA51D" d="M 69.6866 128.8587 C 71.6159 130.7576 72.6935 133.1597 72.8755 135.5067 C 73.0567 137.8544 72.3437 140.1456 70.6916 141.824 C 69.0396 143.5024 66.7601 144.2516 64.4098 144.1076 C 62.0602 143.9629 59.6413 142.9234 57.712 141.0245 C 55.7828 139.1255 54.7051 136.7234 54.5232 134.3764 C 54.342 132.0287 55.055 129.7376 56.707 128.0591 C 58.3591 126.3807 60.6386 125.6315 62.9889 125.7755 C 65.3385 125.9203 67.7574 126.9597 69.6866 128.8587 Z " stroke-width="1.0000217754203118"/>
    <path id="ID0.3403752036392689" fill="#FAA51D" stroke="#000000" stroke-width="1.2" d="M 118.556 143.075 C 118.375 143.075 118.194 143.068 118.01 143.053 L 98.062 141.394 C 95.966 141.22 94.084 140.042 93.011 138.234 L 82.316 120.212 C 80.484 117.125 81.502 113.137 84.588 111.305 C 87.674 109.474 91.663 110.49 93.495 113.577 L 102.479 128.717 L 119.087 130.099 C 122.664 130.397 125.323 133.537 125.025 137.116 C 124.745 140.508 121.902 143.075 118.556 143.075 L 118.556 143.075 Z "/>
  </g>
</svg>