<svg xmlns="http://www.w3.org/2000/svg" xmlns:xlink="http://www.w3.org/1999/xlink" version="1.1" width="170.41441650390624" height="180.24798889160155" viewBox="-0.09941492080688474 0.806000018119812 170.41441650390624 180.24798889160155">
  <!-- Exported by Scratch - http://scratch.mit.edu/ -->
  <g id="ID0.6021349914371967">
    <path id="ID0.803721031639725" fill="#FAA51D" stroke="#000000" stroke-width="1.2" d="M 41.125 138.893 C 40.993 138.893 40.861 138.889 40.728 138.881 C 37.145 138.665 34.415 135.585 34.631 132.001 L 35.671 114.751 C 35.866 111.515 38.417 108.917 41.65 108.662 L 62.994 106.983 C 66.561 106.716 69.702 109.376 69.984 112.954 C 70.265 116.533 67.592 119.662 64.013 119.944 L 48.307 121.178 L 47.608 132.783 C 47.399 136.235 44.536 138.893 41.125 138.893 L 41.125 138.893 Z "/>
    <path id="ID0.4675603983923793_1_" fill="#FAA51D" stroke="#231F20" stroke-width="1.2" d="M 95.517 17.053 C 92.685 16.79 86.782 16.472 83.531 16.628 C 74.837 17.042 66.569 20.173 66.569 20.173 L 42.629 4.55 L 46.738 39.318 C 47.926 37.879 27.328 62.863 40.341 83.864 C 53.362 104.876 81.227 114.239 115.715 107.387 C 150.205 100.53 158.432 80.665 156.147 70.157 C 153.863 59.649 140.843 55.77 140.843 55.77 C 140.843 55.77 140.678 47.532 134.723 37.436 C 131.181 31.426 119.371 22.649 119.371 22.649 L 114.113 1.406 L 100.41 14.654 L 95.517 17.053 L 95.517 17.053 Z "/>
    <path id="ID0.876089540310204_1_" fill="#FFFFFF" d="M 139.119 55.505 L 134.555 51.71 L 117.793 56.603 C 117.793 56.603 117.793 62.891 109.763 64.633 C 101.727 66.383 89.147 60.446 89.147 60.446 L 74.83 66.731 C 74.83 66.731 59.314 68.436 58.76 77.913 C 57.522 98.975 83.364 107.755 93.156 108.314 C 98.499 108.622 108.3 107.692 115.733 106.215 C 148.378 100.268 157.202 80.619 154.921 70.108 C 152.637 59.6 140.249 56.876 140.249 56.876 L 139.119 55.505 L 139.119 55.505 Z " stroke-width="1"/>
    <path id="ID0.44282719027251005_1_" fill="none" stroke="#231F20" stroke-width="1.2" d="M 18.215 75.897 C 18.215 75.897 25.768 76.585 29.201 76.39 C 32.631 76.194 39.301 75.311 39.301 75.311 "/>
    <path id="ID0.893105489667505_1_" fill="none" stroke="#231F20" stroke-width="1.2" d="M 148.748 65.813 C 148.748 65.813 157.113 64.446 161.361 62.963 C 166.353 61.232 169.715 58.283 169.715 58.283 "/>
    <path id="ID0.03574043000116944_1_" fill="none" stroke="#231F20" stroke-width="1.2" d="M 39.664 68.089 C 39.664 68.089 35.28 64.82 28.416 61.781 C 20.813 58.414 16.638 57.546 16.638 57.546 "/>
    <path id="ID0.6674723788164556_1_" fill="none" stroke="#231F20" stroke-width="1.2" d="M 149.596 76.756 C 149.596 76.756 154.61 78.785 159.771 79.303 C 164.866 79.811 168.315 79.505 168.315 79.505 "/>
    <path id="ID0.12165586883202195_1_" fill="none" stroke="#000000" stroke-linecap="round" d="M 94.856 17.156 C 100.078 18.443 102.003 19.857 102.003 19.857 " stroke-width="1"/>
    <path id="ID0.178104005753994_1_" fill="none" stroke="#000000" d="M 60.924 16.185 L 72.065 24.199 " stroke-width="1"/>
    <path id="ID0.7735752793960273_1_" fill="#FFFFFF" stroke="#231F20" d="M 130.697 37.667 C 136.074 45.903 136.274 55.305 131.142 58.658 C 126.005 62.014 117.486 58.049 112.101 49.807 C 106.707 41.569 106.517 32.174 111.653 28.816 C 116.785 25.464 125.314 29.425 130.697 37.667 L 130.697 37.667 Z " stroke-width="1"/>
    <path id="ID0.19106501014903188_1_" fill="#231F20" d="M 129.316 50.828 C 129.316 52.813 127.841 54.425 126.005 54.425 C 124.179 54.425 122.69 52.813 122.69 50.828 C 122.69 48.842 124.179 47.226 126.005 47.226 C 127.842 47.226 129.316 48.841 129.316 50.828 " stroke-width="1"/>
    <path id="ID0.06283409334719181_1_" fill="#FFFFFF" stroke="#231F20" d="M 86.612 43.65 C 91.993 51.888 91.427 61.786 85.359 65.745 C 79.287 69.716 70.003 66.245 64.624 58.007 C 59.24 49.769 59.799 39.875 65.871 35.908 C 71.945 31.943 81.227 35.408 86.612 43.65 L 86.612 43.65 Z " stroke-width="1"/>
    <path id="ID0.716460831463337_1_" fill="#231F20" d="M 83.324 54.477 C 83.324 56.465 81.847 58.077 80.011 58.077 C 78.187 58.077 76.697 56.462 76.697 54.477 C 76.697 52.492 78.187 50.878 80.011 50.878 C 81.844 50.878 83.324 52.492 83.324 54.477 " stroke-width="1"/>
    <path id="ID0.5430324394255877_1_" fill="#5E4A42" stroke="#000000" d="M 108.494 60.764 C 111.903 60.764 116.87 60.243 117.131 61.811 C 117.395 63.383 113.988 69.54 111.637 69.801 C 109.278 70.063 100.373 65.474 100.244 62.594 C 100.108 59.715 105.348 60.764 108.494 60.764 L 108.494 60.764 Z " stroke-width="1"/>
    <path id="ID0.5547774969600141_1_" fill="none" stroke="#231F20" stroke-width="1.2" d="M 84.603 74.206 C 84.603 74.206 103.63 79.822 110.747 81.372 C 117.86 82.921 130.702 84.47 130.702 84.47 C 130.702 84.47 116.009 103.31 98.837 98.527 C 81.664 93.75 81.975 82.922 84.603 74.206 L 84.603 74.206 Z "/>
    <path id="ID0.975944603793323" fill="#FAA51D" stroke="#000000" stroke-width="1.2" d="M 100.2 176.95 C 97.247 176.95 94.498 175.198 93.301 172.384 L 85.697 154.501 L 75.466 142.329 C 72.801 139.158 73.211 134.427 76.381 131.762 C 79.552 129.096 84.283 129.507 86.948 132.677 L 97.901 145.708 C 98.38 146.277 98.771 146.915 99.062 147.6 L 104.654 160.751 L 120.601 157.14 C 124.631 156.22 128.657 158.758 129.572 162.798 C 130.487 166.837 127.954 170.854 123.914 171.769 L 101.859 176.764 C 101.306 176.889 100.749 176.95 100.2 176.95 L 100.2 176.95 Z "/>
    <path id="ID0.7152078151702881_1_" fill="#FAA51D" stroke="#000000" d="M 39.205 136.37 C 34.764 135.54 29.451 133.962 24.968 129.928 C 14.943 120.904 11.739 106.02 4.652 109.858 C -2.44 113.698 -2.303 137.746 20.012 145.154 C 27.702 147.713 34.719 147.722 40.408 147.568 C 41.899 147.521 54.598 146.365 58.942 140.076 C 63.284 133.787 60.264 132.22 58.777 131.351 C 57.287 130.483 45.486 137.542 39.205 136.37 L 39.205 136.37 Z " stroke-width="1"/>
    <path id="ID0.4691764716990292_1_" fill="#FFFFFF" d="M 5.688 110.326 C 2.03 111.454 0.033 119.517 1.87 125.928 C 3.706 132.346 6.714 135.163 8.974 137.694 C 11.785 139.603 7.651 133.277 11.478 130.062 C 15.293 126.855 22.02 128.381 22.02 128.381 C 22.02 128.381 16.671 121.05 13.617 116.619 C 10.726 112.37 9.593 109.403 5.688 110.326 L 5.688 110.326 Z " stroke-width="1"/>
    <path id="ID0.26425604708492756_1_" fill="#FAA51D" stroke="#231F20" stroke-width="1.2" d="M 83.874 141.836 C 86.059 140.158 88.282 137.418 91.141 133.168 C 93.524 129.625 96.106 122.911 96.106 122.911 C 97.714 118.275 99.663 110.818 92.608 109.494 C 89.753 108.959 85.107 109.314 78.504 108.067 C 71.897 106.814 66.003 103.429 61.003 112.173 C 56.005 120.921 43.367 127.382 59.061 142.631 L 83.874 141.836 Z "/>
    <path id="ID0.3591624051332474" fill="#FAA51D" stroke="#000000" stroke-width="1.2" d="M 36.986 180.454 L 22.864 180.454 C 20.61 180.454 18.475 179.44 17.051 177.693 L 9.714 168.693 C 8.172 166.8 7.647 164.276 8.307 161.925 C 8.967 159.574 10.731 157.693 13.033 156.88 L 42.81 146.378 L 54.567 131.412 C 57.126 128.154 61.842 127.59 65.097 130.147 C 68.355 132.706 68.921 137.42 66.362 140.677 L 53.258 157.358 C 52.379 158.478 51.198 159.325 49.856 159.798 L 33.824 165.452 L 36.987 165.452 C 41.13 165.452 44.487 168.809 44.487 172.952 C 44.487 177.095 41.129 180.454 36.986 180.454 L 36.986 180.454 Z "/>
    <path id="ID0.203311821911484_1_" fill="#FFFFFF" d="M 92.149 129.74 C 92.149 129.74 96.691 124.848 87.609 119.962 C 78.527 115.076 74.344 119.931 71.539 122.759 C 66.677 127.642 77.87 134.917 77.87 134.917 L 83.711 140.809 C 83.711 140.809 86.906 137.781 88.307 135.331 C 89.912 133.098 92.149 129.74 92.149 129.74 " stroke-width="1"/>
    <path id="ID0.8820284595713019" fill="#FAA51D" d="M 67.4245 128.6719 C 69.3538 130.5708 70.4314 132.973 70.6134 135.3199 C 70.7946 137.6676 70.0816 139.9588 68.4295 141.6372 C 66.7775 143.3156 64.4979 144.0648 62.1477 143.9208 C 59.7981 143.7761 57.3792 142.7366 55.4499 140.8377 C 53.5206 138.9387 52.443 136.5366 52.2611 134.1896 C 52.0798 131.8419 52.7929 129.5508 54.4449 127.8724 C 56.097 126.1939 58.3765 125.4447 60.7268 125.5887 C 63.0764 125.7335 65.4952 126.7729 67.4245 128.6719 Z " stroke-width="1.0000217754203118"/>
    <path id="ID0.06722750980407" fill="#FAA51D" stroke="#000000" stroke-width="1.2" d="M 102.339 135.266 C 101.009 135.266 99.677 134.859 98.54 134.04 L 81.845 122.018 C 78.932 119.92 78.272 115.859 80.369 112.945 C 82.466 110.032 86.528 109.37 89.442 111.469 L 102.165 120.631 L 115.267 110.318 C 118.086 108.098 122.174 108.585 124.395 111.405 C 126.616 114.226 126.128 118.312 123.308 120.533 L 106.36 133.874 C 105.183 134.8 103.761 135.266 102.339 135.266 L 102.339 135.266 Z "/>
  </g>
</svg>