<svg version="1.1" xmlns="http://www.w3.org/2000/svg" xmlns:xlink="http://www.w3.org/1999/xlink" width="168.07248" height="186.80361" viewBox="0,0,168.07248,186.80361"><g transform="translate(-158.00017,5.99961)"><g data-paper-data="{&quot;isPaintingLayer&quot;:true}" fill-rule="nonzero" stroke-linejoin="miter" stroke-miterlimit="10" stroke-dasharray="" stroke-dashoffset="0" style="mix-blend-mode: normal"><path d="M248.832,147.78c-1.991,0.001 -3.956,-0.911 -5.231,-2.636l-10.958,-14.82c-1.322,-1.788 -1.639,-4.127 -0.839,-6.202l6.579,-17.068c1.292,-3.35 5.057,-5.016 8.403,-3.728c3.35,1.292 5.019,5.054 3.728,8.403l-5.295,13.737l8.835,11.949c2.134,2.887 1.524,6.956 -1.362,9.091c-1.163,0.86 -2.517,1.274 -3.86,1.274z" fill="#faa51d" stroke="#000000" stroke-width="1.2" stroke-linecap="butt"/><path d="M256.561,178.125c-0.021,0 -0.042,0 -0.063,0l-20.082,-0.148c-2.424,-0.016 -4.691,-1.202 -6.086,-3.185c-1.396,-1.982 -1.746,-4.518 -0.941,-6.804l5.996,-17.047l-8.81,-18.37c-1.791,-3.735 -0.215,-8.215 3.52,-10.006c3.733,-1.79 8.216,-0.215 10.006,3.52l10.152,21.172c0.86,1.794 0.973,3.855 0.313,5.731l-3.537,10.058l9.595,0.079c4.142,0.034 7.472,3.42 7.438,7.563c-0.037,4.119 -3.388,7.437 -7.501,7.437z" fill="#faa51d" stroke="#000000" stroke-width="1.2" stroke-linecap="butt"/><path d="M202.323,134.748c5.526,-3.208 9.87,-16.254 11.565,-16.569c1.694,-0.311 5.004,-1.093 5.814,6.508c0.809,7.6 -8.066,16.757 -9.166,17.766c-4.212,3.826 -9.539,8.394 -17.037,11.469c-21.749,8.935 -37.534,-9.207 -34.661,-16.744c2.87,-7.53 15.005,1.665 28.489,1.969c6.03,0.136 11.087,-2.131 14.996,-4.399z" fill="#faa51d" stroke="#000000" stroke-width="1" stroke-linecap="butt"/><path d="M159.93,136.859c2.358,-3.246 5.152,-1.735 10.113,-0.4c5.206,1.368 14.042,3.438 14.042,3.438c0,0 -6.095,3.229 -6.897,8.148c-0.805,4.934 6.454,7.033 3.079,7.419c-3.364,-0.444 -7.482,-0.62 -13.059,-4.288c-5.572,-3.662 -9.316,-11.077 -7.278,-14.317z" fill="#ffffff" stroke="none" stroke-width="1" stroke-linecap="butt"/><path d="M219.023,136.381c-15.694,-15.249 -3.056,-21.71 1.942,-30.458c5,-8.744 10.894,-5.359 17.501,-4.106c6.603,1.247 11.249,0.892 14.104,1.427c7.055,1.324 5.106,8.781 3.498,13.417c0,0 -2.582,6.714 -4.965,10.257c-2.859,4.25 -5.082,6.99 -7.267,8.668z" fill="#faa51d" stroke="#231f20" stroke-width="1.2" stroke-linecap="butt"/><path d="M231.948,180.204h-24.459c-2.724,0 -5.233,-1.477 -6.557,-3.858c-1.322,-2.381 -1.25,-5.292 0.189,-7.604l12.711,-20.425l0.093,-18.558c0.021,-4.13 3.375,-7.463 7.499,-7.463c0.013,0 0.025,0 0.038,0c4.143,0.021 7.483,3.396 7.463,7.537l-0.104,20.681c-0.007,1.389 -0.399,2.747 -1.133,3.926l-6.699,10.765h10.958c4.143,0 7.5,3.357 7.5,7.5c0,4.143 -3.356,7.499 -7.499,7.499z" fill="#faa51d" stroke="#000000" stroke-width="1.2" stroke-linecap="butt"/><path d="M252.111,123.49c0,0 -2.237,3.358 -3.842,5.591c-1.401,2.45 -4.596,5.478 -4.596,5.478l-6.841,-1.892c0,0 -10.193,-11.275 -5.331,-16.158c2.805,-2.828 6.988,-7.683 16.07,-2.797c9.082,4.886 4.54,9.778 4.54,9.778" fill="#ffffff" stroke="none" stroke-width="1" stroke-linecap="butt"/><path d="M229.392,135.379c-3.307,3.359 -9.118,3.001 -12.979,-0.8c-3.862,-3.8 -4.312,-9.606 -1.004,-12.965c3.307,-3.36 9.119,-5.003 12.98,-1.202c6.572,6.468 6.934,8.939 1.003,14.967z" fill="#faa51d" stroke="none" stroke-width="1" stroke-linecap="butt"/><path d="M251.479,10.803l4.893,-2.399l13.703,-13.248l5.258,21.243c0,0 11.81,8.777 15.352,14.787c5.955,10.096 6.12,18.334 6.12,18.334c0,0 13.02,3.879 15.304,14.387c2.285,10.508 -5.942,30.373 -40.432,37.23c-34.488,6.852 -62.353,-2.511 -75.374,-23.523c-13.013,-21.001 7.585,-45.985 6.397,-44.546l-4.109,-34.768l23.94,15.623c0,0 8.268,-3.131 16.962,-3.545c3.251,-0.156 9.154,0.162 11.986,0.425z" fill="#faa51d" stroke="#231f20" stroke-width="1.2" stroke-linecap="butt"/><path d="M295.081,49.255l1.131,1.37c0,0 12.388,2.724 14.672,13.232c2.281,10.511 -6.543,30.16 -39.188,36.107c-7.433,1.477 -17.234,2.407 -22.577,2.099c-9.792,-0.559 -35.634,-9.339 -34.396,-30.401c0.554,-9.477 16.07,-11.182 16.07,-11.182l14.316,-6.284c0,0 12.58,5.937 20.616,4.187c8.03,-1.742 8.03,-8.03 8.03,-8.03l16.762,-4.893l4.564,3.795z" fill="#ffffff" stroke="none" stroke-width="1" stroke-linecap="butt"/><path d="M195.263,69.061c0,0 -6.67,0.883 -10.1,1.079c-3.433,0.195 -10.986,-0.493 -10.986,-0.493" fill="none" stroke="#231f20" stroke-width="1.2" stroke-linecap="butt"/><path d="M325.677,52.033c0,0 -3.362,2.949 -8.354,4.68c-4.248,1.483 -12.613,2.85 -12.613,2.85" fill="none" stroke="#231f20" stroke-width="1.2" stroke-linecap="butt"/><path d="M172.6,51.296c0,0 4.175,0.869 11.778,4.235c6.864,3.039 11.248,6.308 11.248,6.308" fill="none" stroke="#231f20" stroke-width="1.2" stroke-linecap="butt"/><path d="M324.277,73.255c0,0 -3.449,0.306 -8.544,-0.202c-5.161,-0.518 -10.175,-2.547 -10.175,-2.547" fill="none" stroke="#231f20" stroke-width="1.2" stroke-linecap="butt"/><path d="M250.818,10.906c5.222,1.287 7.147,2.701 7.147,2.701" fill="none" stroke="#000000" stroke-width="1" stroke-linecap="round"/><path d="M216.886,9.935l11.141,8.014" fill="none" stroke="#000000" stroke-width="1" stroke-linecap="butt"/><path d="M286.659,31.417c5.377,8.236 5.577,17.638 0.445,20.991c-5.137,3.356 -13.656,-0.609 -19.041,-8.851c-5.394,-8.238 -5.584,-17.633 -0.448,-20.991c5.132,-3.352 13.661,0.609 19.044,8.851z" fill="#ffffff" stroke="#231f20" stroke-width="1" stroke-linecap="butt"/><path d="M285.278,44.578c0,1.985 -1.475,3.597 -3.311,3.597c-1.826,0 -3.315,-1.612 -3.315,-3.597c0,-1.986 1.489,-3.602 3.315,-3.602c1.837,0 3.311,1.615 3.311,3.602" fill="#231f20" stroke="none" stroke-width="1" stroke-linecap="butt"/><path d="M242.574,37.4c5.381,8.238 4.815,18.136 -1.253,22.095c-6.072,3.971 -15.356,0.5 -20.735,-7.738c-5.384,-8.238 -4.825,-18.132 1.247,-22.099c6.074,-3.965 15.355,-0.5 20.741,7.742z" fill="#ffffff" stroke="#231f20" stroke-width="1" stroke-linecap="butt"/><path d="M239.286,48.227c0,1.988 -1.477,3.6 -3.313,3.6c-1.824,0 -3.314,-1.615 -3.314,-3.6c0,-1.985 1.49,-3.599 3.314,-3.599c1.833,0 3.313,1.614 3.313,3.599" fill="#231f20" stroke="none" stroke-width="1" stroke-linecap="butt"/><path d="M264.456,54.514c3.409,0 8.376,-0.521 8.637,1.047c0.264,1.572 -3.143,7.729 -5.494,7.99c-2.359,0.262 -11.264,-4.327 -11.393,-7.207c-0.136,-2.879 5.104,-1.83 8.25,-1.83z" fill="#5e4a42" stroke="#000000" stroke-width="1" stroke-linecap="butt"/><path d="M240.564,67.956c0,0 19.027,5.616 26.144,7.166c7.113,1.549 19.955,3.098 19.955,3.098c0,0 -14.693,18.84 -31.865,14.057c-17.172,-4.777 -16.861,-15.605 -14.234,-24.321z" fill="none" stroke="#231f20" stroke-width="1.2" stroke-linecap="butt"/><path d="M231.241,146.983c-2.048,0 -4.063,-0.965 -5.327,-2.769l-10.635,-15.163c-1.459,-2.08 -1.572,-4.82 -0.29,-7.014l10.019,-17.132c1.813,-3.1 5.798,-4.139 8.893,-2.33c3.099,1.813 4.142,5.794 2.33,8.893l-7.915,13.532l8.24,11.749c2.062,2.939 1.351,6.993 -1.589,9.054c-1.135,0.797 -2.437,1.18 -3.726,1.18z" fill="#faa51d" stroke="#000000" stroke-width="1.2" stroke-linecap="butt"/></g></g></svg>