<svg xmlns="http://www.w3.org/2000/svg" xmlns:xlink="http://www.w3.org/1999/xlink" version="1.1" width="170.41441650390624" height="176.7480041503906" viewBox="-0.09941492080688474 0.6059999704360962 170.41441650390624 176.7480041503906">
  <!-- Exported by Scratch - http://scratch.mit.edu/ -->
  <g id="ID0.4749475824646652">
    <path id="ID0.4675603983923793_1_" fill="#FAA51D" stroke="#231F20" stroke-width="1.2" d="M 95.517 16.853 C 92.685 16.59 86.782 16.272 83.531 16.428 C 74.837 16.842 66.569 19.973 66.569 19.973 L 42.629 4.35 L 46.738 39.118 C 47.926 37.679 27.328 62.663 40.341 83.664 C 53.362 104.676 81.227 114.039 115.715 107.187 C 150.205 100.33 158.432 80.465 156.147 69.957 C 153.863 59.449 140.843 55.57 140.843 55.57 C 140.843 55.57 140.678 47.332 134.723 37.236 C 131.181 31.226 119.371 22.449 119.371 22.449 L 114.113 1.206 L 100.41 14.454 L 95.517 16.853 L 95.517 16.853 Z "/>
    <path id="ID0.876089540310204_1_" fill="#FFFFFF" d="M 139.119 55.305 L 134.555 51.51 L 117.793 56.403 C 117.793 56.403 117.793 62.691 109.763 64.433 C 101.727 66.183 89.147 60.246 89.147 60.246 L 74.83 66.531 C 74.83 66.531 59.314 68.236 58.76 77.713 C 57.522 98.775 83.364 107.555 93.156 108.114 C 98.499 108.422 108.3 107.492 115.733 106.015 C 148.378 100.068 157.202 80.419 154.921 69.908 C 152.637 59.4 140.249 56.676 140.249 56.676 L 139.119 55.305 L 139.119 55.305 Z " stroke-width="1"/>
    <path id="ID0.44282719027251005_1_" fill="none" stroke="#231F20" stroke-width="1.2" d="M 18.215 75.697 C 18.215 75.697 25.768 76.385 29.201 76.19 C 32.631 75.994 39.301 75.111 39.301 75.111 "/>
    <path id="ID0.893105489667505_1_" fill="none" stroke="#231F20" stroke-width="1.2" d="M 148.748 65.613 C 148.748 65.613 157.113 64.246 161.361 62.763 C 166.353 61.032 169.715 58.083 169.715 58.083 "/>
    <path id="ID0.03574043000116944_1_" fill="none" stroke="#231F20" stroke-width="1.2" d="M 39.664 67.889 C 39.664 67.889 35.28 64.62 28.416 61.581 C 20.813 58.214 16.638 57.346 16.638 57.346 "/>
    <path id="ID0.6674723788164556_1_" fill="none" stroke="#231F20" stroke-width="1.2" d="M 149.596 76.556 C 149.596 76.556 154.61 78.585 159.771 79.103 C 164.866 79.611 168.315 79.305 168.315 79.305 "/>
    <path id="ID0.12165586883202195_1_" fill="none" stroke="#000000" stroke-linecap="round" d="M 94.856 16.956 C 100.078 18.243 102.003 19.657 102.003 19.657 " stroke-width="1"/>
    <path id="ID0.178104005753994_1_" fill="none" stroke="#000000" d="M 60.924 15.985 L 72.065 23.999 " stroke-width="1"/>
    <path id="ID0.7735752793960273_1_" fill="#FFFFFF" stroke="#231F20" d="M 130.697 37.467 C 136.074 45.703 136.274 55.105 131.142 58.458 C 126.005 61.814 117.486 57.849 112.101 49.607 C 106.707 41.369 106.517 31.974 111.653 28.616 C 116.785 25.264 125.314 29.225 130.697 37.467 L 130.697 37.467 Z " stroke-width="1"/>
    <path id="ID0.19106501014903188_1_" fill="#231F20" d="M 129.316 50.628 C 129.316 52.613 127.841 54.225 126.005 54.225 C 124.179 54.225 122.69 52.613 122.69 50.628 C 122.69 48.642 124.179 47.026 126.005 47.026 C 127.842 47.026 129.316 48.641 129.316 50.628 " stroke-width="1"/>
    <path id="ID0.06283409334719181_1_" fill="#FFFFFF" stroke="#231F20" d="M 86.612 43.45 C 91.993 51.688 91.427 61.586 85.359 65.545 C 79.287 69.516 70.003 66.045 64.624 57.807 C 59.24 49.569 59.799 39.675 65.871 35.708 C 71.945 31.743 81.227 35.208 86.612 43.45 L 86.612 43.45 Z " stroke-width="1"/>
    <path id="ID0.716460831463337_1_" fill="#231F20" d="M 83.324 54.277 C 83.324 56.265 81.847 57.877 80.011 57.877 C 78.187 57.877 76.697 56.262 76.697 54.277 C 76.697 52.292 78.187 50.678 80.011 50.678 C 81.844 50.678 83.324 52.292 83.324 54.277 " stroke-width="1"/>
    <path id="ID0.5430324394255877_1_" fill="#5E4A42" stroke="#000000" d="M 108.494 60.564 C 111.903 60.564 116.87 60.043 117.131 61.611 C 117.395 63.183 113.988 69.34 111.637 69.601 C 109.278 69.863 100.373 65.274 100.244 62.394 C 100.108 59.515 105.348 60.564 108.494 60.564 L 108.494 60.564 Z " stroke-width="1"/>
    <path id="ID0.5547774969600141_1_" fill="none" stroke="#231F20" stroke-width="1.2" d="M 84.603 74.006 C 84.603 74.006 103.63 79.622 110.747 81.172 C 117.86 82.721 130.702 84.27 130.702 84.27 C 130.702 84.27 116.009 103.11 98.837 98.327 C 81.664 93.55 81.975 82.722 84.603 74.006 L 84.603 74.006 Z "/>
    <path id="ID0.6088272044435143" fill="#FAA51D" stroke="#000000" stroke-width="1.2" d="M 68.194 176.754 C 68.184 176.754 68.174 176.754 68.164 176.754 L 46.158 176.667 C 42.91 176.654 40.04 174.553 39.047 171.46 C 38.054 168.368 39.164 164.987 41.797 163.087 L 57.988 151.396 L 53.648 134.01 C 52.645 129.991 55.089 125.92 59.108 124.917 C 63.125 123.913 67.198 126.357 68.201 130.377 L 73.77 152.688 C 74.513 155.663 73.37 158.79 70.884 160.584 L 69.176 161.817 C 72.866 162.3 75.708 165.464 75.693 169.283 C 75.677 173.415 72.322 176.754 68.194 176.754 L 68.194 176.754 Z "/>
    <path id="ID0.7152078151702881_1_" fill="#FAA51D" stroke="#000000" d="M 39.205 136.17 C 34.764 135.34 29.451 133.762 24.968 129.728 C 14.943 120.704 11.739 105.82 4.652 109.658 C -2.44 113.498 -2.303 137.546 20.012 144.954 C 27.702 147.513 34.719 147.522 40.408 147.368 C 41.899 147.321 54.598 146.165 58.942 139.876 C 63.284 133.587 60.264 132.02 58.777 131.151 C 57.287 130.283 45.486 137.342 39.205 136.17 L 39.205 136.17 Z " stroke-width="1"/>
    <path id="ID0.4691764716990292_1_" fill="#FFFFFF" d="M 5.688 110.126 C 2.03 111.254 0.033 119.317 1.87 125.728 C 3.706 132.146 6.714 134.963 8.974 137.494 C 11.785 139.403 7.651 133.077 11.478 129.862 C 15.293 126.655 22.02 128.181 22.02 128.181 C 22.02 128.181 16.671 120.85 13.617 116.419 C 10.726 112.17 9.593 109.203 5.688 110.126 L 5.688 110.126 Z " stroke-width="1"/>
    <path id="ID0.26425604708492756_1_" fill="#FAA51D" stroke="#231F20" stroke-width="1.2" d="M 83.874 141.636 C 86.059 139.958 88.282 137.218 91.141 132.968 C 93.524 129.425 96.106 122.711 96.106 122.711 C 97.714 118.075 99.663 110.618 92.608 109.294 C 89.753 108.759 85.107 109.114 78.504 107.867 C 71.897 106.614 66.003 103.229 61.003 111.973 C 56.005 120.721 43.367 127.182 59.061 142.431 L 83.874 141.636 Z "/>
    <path id="ID0.732977959793061" fill="#FAA51D" stroke="#000000" stroke-width="1.2" d="M 72.058 169.755 C 70.528 169.755 68.985 169.288 67.653 168.319 L 60.091 162.819 C 59.824 162.625 59.57 162.414 59.332 162.186 L 53.546 156.678 C 51.378 154.614 50.645 151.458 51.68 148.65 C 52.716 145.842 55.323 143.919 58.311 143.756 L 68.104 143.227 L 64.855 140.335 C 61.761 137.58 61.486 132.84 64.24 129.746 C 66.995 126.65 71.735 126.378 74.829 129.13 L 91.679 144.129 C 93.949 146.15 94.776 149.341 93.772 152.209 C 92.768 155.077 90.132 157.057 87.098 157.221 L 78.035 157.711 C 79.99 160.278 80.125 163.921 78.13 166.665 C 76.662 168.683 74.376 169.754 72.058 169.755 L 72.058 169.755 Z "/>
    <path id="ID0.203311821911484_1_" fill="#FFFFFF" d="M 92.149 129.54 C 92.149 129.54 96.691 124.648 87.609 119.762 C 78.527 114.876 74.344 119.731 71.539 122.559 C 66.677 127.442 77.87 134.717 77.87 134.717 L 83.711 140.609 C 83.711 140.609 86.906 137.581 88.307 135.131 C 89.912 132.898 92.149 129.54 92.149 129.54 " stroke-width="1"/>
    <path id="ID0.5489467303268611" fill="#FAA51D" d="M 67.4245 128.4719 C 69.3538 130.3708 70.4314 132.773 70.6134 135.1199 C 70.7946 137.4676 70.0816 139.7588 68.4295 141.4372 C 66.7775 143.1156 64.4979 143.8648 62.1477 143.7208 C 59.7981 143.5761 57.3792 142.5366 55.4499 140.6377 C 53.5206 138.7387 52.443 136.3366 52.2611 133.9896 C 52.0798 131.6419 52.7929 129.3508 54.4449 127.6724 C 56.097 125.9939 58.3765 125.2447 60.7268 125.3887 C 63.0764 125.5335 65.4952 126.5729 67.4245 128.4719 Z " stroke-width="1.0000217754203118"/>
    <path id="ID0.23213773593306541" fill="#FAA51D" stroke="#000000" stroke-width="1.2" d="M 82.611 143.592 C 81.843 143.592 81.063 143.455 80.303 143.166 L 60.95 135.812 C 59.235 135.161 57.875 133.814 57.206 132.105 C 56.537 130.397 56.622 128.485 57.438 126.842 L 65.243 111.143 C 66.842 107.929 70.745 106.62 73.957 108.216 C 77.172 109.814 78.482 113.716 76.884 116.93 L 72.272 126.207 L 84.919 131.013 C 88.275 132.288 89.962 136.042 88.687 139.398 C 87.701 141.994 85.231 143.592 82.611 143.592 L 82.611 143.592 Z "/>
  </g>
</svg>