<svg version="1.1" xmlns="http://www.w3.org/2000/svg" xmlns:xlink="http://www.w3.org/1999/xlink" width="482" height="185.63943" viewBox="0,0,482,185.63943"><g transform="translate(-1,-31.36057)"><g data-paper-data="{&quot;isPaintingLayer&quot;:true}" fill-rule="nonzero" stroke="none" stroke-linecap="butt" stroke-linejoin="miter" stroke-miterlimit="10" stroke-dasharray="" stroke-dashoffset="0" style="mix-blend-mode: normal"><path d="M1,199.5v-29h482v29z" fill="#6cff66" stroke-width="0"/><path d="M154.87171,89.20943c0.79057,2.37171 -1.58114,3.16228 -1.58114,3.16228l-3.0916,1.02859c-7.82584,1.92891 -15.10666,6.11458 -22.3145,9.69083c-2.39615,2.22241 -5.24881,3.89556 -7.84594,5.87938c-3.85272,2.9429 -7.73265,6.38586 -11.46866,9.46773c-2.23777,1.84596 -3.73723,4.43788 -5.62522,6.6403c-2.9101,3.39476 -6.17946,6.53945 -8.87136,10.1329c-1.00915,1.34712 -1.61223,2.96622 -2.60278,4.32708c-2.95711,4.06262 -6.41144,7.98646 -8.72473,12.55985c-0.57847,1.14364 -1.62928,5.74185 -1.82043,6.50796c0,0 -0.60634,2.42536 -3.0317,1.81902c-2.42536,-0.60634 -1.81902,-3.0317 -1.81902,-3.0317c2.81674,-11.24609 10.29783,-20.08312 17.4267,-28.90318c3.77369,-4.66892 7.35502,-10.09458 11.99985,-13.99979c6.33175,-5.32352 13.42931,-9.89661 19.53674,-15.51018c7.65841,-3.89389 15.41965,-8.26794 23.76309,-10.3808l2.9084,-0.97141c0,0 2.37171,-0.79057 3.16228,1.58114z" fill="#6cff66" stroke-width="0.5"/><path d="M255.26777,87.23223c1.76777,1.76777 0,3.53553 0,3.53553l-1.9772,1.60394c-4.32998,1.44333 -8.93907,3.53486 -13.48511,4.10956c-2.31491,0.29264 -4.69134,-0.3384 -7,0c-2.43272,0.35658 -4.84678,1.0048 -7.30546,1.01873c0,0 -2.5,0 -2.5,-2.5c0,-2.5 2.5,-2.5 2.5,-2.5c2.2553,0.01568 4.4608,-0.66978 6.69454,-0.98127c1.06388,-0.14836 6.08553,0.11277 7,0c4.19293,-0.51704 8.52504,-2.56049 12.51489,-3.89044l0.0228,-0.39606c0,0 1.76777,-1.76777 3.53553,0z" fill="#6cff66" stroke-width="0.5"/><path d="M313.82674,31.76147c2.15338,1.27002 0.88335,3.4234 0.88335,3.4234l-0.71843,1.21813c-0.59542,0.96568 -0.99189,2.08708 -1.78627,2.89704c-1.51678,1.54653 -3.8939,2.03917 -5.43724,3.5592c-1.18744,1.16951 -1.92904,2.742 -3.12359,3.90425c-0.71399,0.69469 -1.8257,0.88757 -2.52777,1.59431c-0.58753,0.59144 -0.72282,1.51463 -1.2231,2.18151c-2.5045,3.33853 -6.1476,6.91087 -9.20871,9.69968c-4.27571,3.89535 -8.49029,7.17472 -12.3742,11.51233c0,0 -1.66767,1.86249 -3.53016,0.19481c-1.86249,-1.66767 -0.19481,-3.53016 -0.19481,-3.53016c3.98915,-4.45516 8.34355,-7.87589 12.73203,-11.87324c2.82647,-2.57456 6.22548,-5.86861 8.54035,-8.95549c0.63134,-0.84189 0.91485,-1.93872 1.65064,-2.69103c0.77762,-0.79507 1.98511,-1.06586 2.78224,-1.84136c1.1946,-1.1622 1.92259,-2.74867 3.12359,-3.90425c2.42844,-2.33662 4.61593,-2.28241 6.27025,-5.28764l0.71843,-1.21813c0,0 1.27002,-2.15338 3.4234,-0.88335z" fill="#6cff66" stroke-width="0.5"/><path d="M380,101c0,1.61896 -1.04842,2.18951 -1.78737,2.39058c-0.78875,1.66992 -1.85245,3.22875 -3.12766,4.54278c-1.28684,0.81979 -2.41523,1.97031 -3.86051,2.45937c-1.17647,0.3981 -2.48258,0.09002 -3.72446,0.10727c-4.39034,0.06097 -8.03025,-0.408 -12.30546,-1.01873c-7.86985,-1.12424 -16.2459,-2.66053 -20.82117,-10.16694c-3.67408,-6.02786 -4.07702,-13.01958 -6.24508,-19.52376c0,0 -0.79057,-2.37171 1.58114,-3.16228c2.37171,-0.79057 3.16228,1.58114 3.16228,1.58114c2.62264,7.86791 2.89577,18.81793 10.94262,23.66394c3.34886,2.01677 8.29428,2.11723 11.99113,2.64536c5.07775,0.72541 11.66752,2.74659 16.10957,-0.45209c1.07635,-1.01925 1.78099,-2.43928 2.21326,-3.85721l3.37171,-1.70943c0,0 2.5,0 2.5,2.5z" fill="#6cff66" stroke-width="0.5"/><path d="M146.5,217v-102h265v102z" fill="#ff6666" stroke-width="0"/></g></g></svg>